<svg width="1920" height="1062" viewBox="0 0 1920 1062" fill="none" xmlns="http://www.w3.org/2000/svg">
<g opacity="0.85" filter="url(#filter0_f_2953_2063)">
<path d="M305.799 1043.6C315.621 1043.6 323.599 1035.64 323.599 1025.8C323.599 1015.98 315.639 1008 305.799 1008C295.977 1008 288 1015.96 288 1025.8C288 1035.64 295.96 1043.6 305.799 1043.6ZM305.799 1017.45C310.42 1017.45 314.163 1021.2 314.163 1025.82C314.163 1030.44 310.42 1034.18 305.799 1034.18C301.178 1034.18 297.436 1030.44 297.436 1025.82C297.436 1021.2 301.178 1017.45 305.799 1017.45Z" fill="#114A82"/>
<path d="M365.26 1043.6C375.082 1043.6 383.06 1035.64 383.06 1025.8C383.06 1015.98 375.1 1008 365.26 1008C355.438 1008 347.461 1015.96 347.461 1025.8C347.461 1035.64 355.438 1043.6 365.26 1043.6ZM365.26 1017.45C369.881 1017.45 373.624 1021.2 373.624 1025.82C373.624 1030.44 369.881 1034.18 365.26 1034.18C360.639 1034.18 356.897 1030.44 356.897 1025.82C356.914 1021.2 360.639 1017.45 365.26 1017.45Z" fill="#000CFF"/>
<path d="M1376.69 178.019C1385.62 174.29 1389.85 164.022 1386.12 155.084C1382.39 146.146 1372.12 141.922 1363.18 145.651C1354.25 149.38 1350.02 159.648 1353.75 168.586C1357.48 177.524 1367.75 181.747 1376.69 178.019Z" fill="#2534B4"/>
<path d="M1561.11 132C1544.65 132 1531.3 145.354 1531.3 161.818C1531.3 178.282 1544.65 191.636 1561.11 191.636C1577.58 191.636 1590.93 178.282 1590.93 161.818C1590.93 145.354 1577.58 132 1561.11 132ZM1561.11 176.05C1553.26 176.05 1546.9 169.69 1546.9 161.835C1546.9 153.981 1553.26 147.621 1561.11 147.621C1568.97 147.621 1575.33 153.981 1575.33 161.835C1575.33 169.69 1568.97 176.05 1561.11 176.05Z" fill="#2534B4"/>
<path d="M1629.75 144.508C1620.19 144.508 1612.45 152.257 1612.45 161.815C1612.45 171.374 1620.19 179.123 1629.75 179.123C1639.31 179.123 1647.06 171.374 1647.06 161.815C1647.06 152.257 1639.31 144.508 1629.75 144.508ZM1629.75 166.489C1627.17 166.489 1625.08 164.398 1625.08 161.815C1625.08 159.232 1627.17 157.141 1629.75 157.141C1632.34 157.141 1634.43 159.232 1634.43 161.815C1634.43 164.398 1632.34 166.489 1629.75 166.489Z" fill="#114A82"/>
<path d="M1494.86 146.48C1486.37 146.48 1479.5 153.351 1479.5 161.837C1479.5 170.324 1486.37 177.194 1494.86 177.194C1503.35 177.194 1510.22 170.324 1510.22 161.837C1510.22 153.351 1503.35 146.48 1494.86 146.48ZM1494.86 169.147C1490.82 169.147 1487.53 165.861 1487.53 161.82C1487.53 157.779 1490.82 154.493 1494.86 154.493C1498.9 154.493 1502.19 157.779 1502.19 161.82C1502.19 165.861 1498.9 169.147 1494.86 169.147Z" fill="#000CFF"/>
<path d="M1919.53 735.442L1931.55 747.443L1935.08 743.912L1919.53 728.361L1904 743.912L1907.53 747.443L1919.53 735.442Z" fill="#2534B4"/>
<path d="M1919.53 756.403L1931.55 768.404L1935.08 764.873L1919.53 749.322L1904 764.873L1907.53 768.404L1919.53 756.403Z" fill="#2534B4"/>
<path d="M1919.53 777.612L1931.55 789.631L1935.08 786.082L1919.53 770.549L1904 786.082L1907.53 789.631L1919.53 777.612Z" fill="#2534B4"/>
<path d="M1919.53 693.273L1931.55 705.273L1935.08 701.742L1919.53 686.191L1904 701.742L1907.53 705.273L1919.53 693.273Z" fill="#2534B4"/>
<path d="M1919.53 714.233L1931.55 726.234L1935.08 722.703L1919.53 707.152L1904 722.703L1907.53 726.234L1919.53 714.233Z" fill="#2534B4"/>
<path d="M249.301 621.601C262.721 621.601 273.601 610.721 273.601 597.301C273.601 583.88 262.721 573 249.301 573C235.88 573 225 583.88 225 597.301C225 610.721 235.88 621.601 249.301 621.601Z" fill="#000CFF"/>
<path d="M366.835 597.246L378.836 585.227L375.304 581.695L359.754 597.246L375.304 612.796L378.836 609.246L366.835 597.246Z" fill="#2534B4"/>
<path d="M387.796 597.246L399.797 585.227L396.265 581.695L380.715 597.246L396.265 612.796L399.797 609.246L387.796 597.246Z" fill="#2534B4"/>
<path d="M409.009 597.246L421.027 585.227L417.478 581.695L401.945 597.246L417.478 612.796L421.027 609.246L409.009 597.246Z" fill="#2534B4"/>
<path d="M324.667 597.246L336.668 585.227L333.136 581.695L317.586 597.246L333.136 612.796L336.668 609.246L324.667 597.246Z" fill="#2534B4"/>
<path d="M345.628 597.246L357.629 585.227L354.097 581.695L338.547 597.246L354.097 612.796L357.629 609.246L345.628 597.246Z" fill="#2534B4"/>
<path d="M797.777 257.395L768.89 286.141L739.986 257.395L711.099 286.141L682.213 257.395L656.735 282.749L631.24 257.395L602.353 286.141L573.449 257.395L544.562 286.141L515.676 257.395L487 285.93L490.198 289.128L515.676 263.773L544.562 292.519L573.449 263.773L602.353 292.519L631.24 263.773L656.735 289.145L682.213 263.773L711.099 292.519L739.986 263.773L768.89 292.519L797.777 263.773L823.272 289.128L826.452 285.93L797.777 257.395Z" fill="#0B315E"/>
<path d="M797.779 206L768.893 234.746L739.988 206L711.102 234.746L682.215 206L659.303 228.807L659.285 235.203L682.215 212.378L711.102 241.124L739.988 212.378L768.893 241.124L797.779 212.378L823.274 237.733L826.455 234.518L797.779 206Z" fill="#2534B4"/>
<path d="M1564.49 275L1535.61 303.746L1506.7 275L1477.82 303.746L1448.93 275V281.378L1477.82 310.124L1506.7 281.378L1535.61 310.124L1564.49 281.378L1589.99 306.733L1593.17 303.518L1564.49 275Z" fill="#000CFF"/>
<path d="M1668.49 982L1639.6 1010.75L1610.69 982L1581.81 1010.75L1552.92 982L1524 1010.8L1527.32 1013.86L1552.92 988.361L1581.81 1017.11L1610.69 988.361L1639.6 1017.11L1668.49 988.361L1693.98 1013.72L1697.16 1010.52L1668.49 982Z" fill="#2534B4"/>
<path d="M1824.78 910.556C1822.69 910.556 1821 908.851 1821 906.778C1821 904.687 1822.7 903 1824.78 903C1826.85 903 1828.56 904.704 1828.56 906.778C1828.56 908.869 1826.87 910.556 1824.78 910.556Z" fill="#0B315E"/>
<path d="M1824.78 943.009C1822.69 943.009 1821 941.304 1821 939.231C1821 937.14 1822.7 935.453 1824.78 935.453C1826.85 935.453 1828.56 937.157 1828.56 939.231C1828.56 941.304 1826.87 943.009 1824.78 943.009Z" fill="#0B315E"/>
<path d="M1860.36 943.009C1858.27 943.009 1856.58 941.304 1856.58 939.231C1856.58 937.14 1858.29 935.453 1860.36 935.453C1862.45 935.453 1864.14 937.157 1864.14 939.231C1864.16 941.304 1862.45 943.009 1860.36 943.009Z" fill="#0B315E"/>
<path d="M1824.78 975.462C1822.69 975.462 1821 973.757 1821 971.684C1821 969.593 1822.7 967.906 1824.78 967.906C1826.85 967.906 1828.56 969.611 1828.56 971.684C1828.56 973.757 1826.87 975.462 1824.78 975.462Z" fill="#0B315E"/>
<path d="M1860.36 975.462C1858.27 975.462 1856.58 973.757 1856.58 971.684C1856.58 969.593 1858.29 967.906 1860.36 967.906C1862.45 967.906 1864.14 969.611 1864.14 971.684C1864.16 973.757 1862.45 975.462 1860.36 975.462Z" fill="#0B315E"/>
<path d="M1895.94 975.462C1893.85 975.462 1892.16 973.757 1892.16 971.684C1892.16 969.593 1893.87 967.906 1895.94 967.906C1898.03 967.906 1899.72 969.611 1899.72 971.684C1899.74 973.757 1898.03 975.462 1895.94 975.462Z" fill="#0B315E"/>
<path d="M1824.78 1007.9C1822.69 1007.9 1821 1006.19 1821 1004.12C1821 1002.03 1822.7 1000.34 1824.78 1000.34C1826.85 1000.34 1828.56 1002.05 1828.56 1004.12C1828.56 1006.21 1826.87 1007.9 1824.78 1007.9Z" fill="#0B315E"/>
<path d="M1860.36 1007.9C1858.27 1007.9 1856.58 1006.19 1856.58 1004.12C1856.58 1002.03 1858.29 1000.34 1860.36 1000.34C1862.45 1000.34 1864.14 1002.05 1864.14 1004.12C1864.16 1006.21 1862.45 1007.9 1860.36 1007.9Z" fill="#0B315E"/>
<path d="M1824.78 1040.35C1826.86 1040.35 1828.56 1038.66 1828.56 1036.57C1828.56 1034.49 1826.86 1032.79 1824.78 1032.79C1822.69 1032.79 1821 1034.49 1821 1036.57C1821 1038.66 1822.69 1040.35 1824.78 1040.35Z" fill="#0B315E"/>
<path d="M189.559 657.501C187.697 657.501 186.168 655.99 186.168 654.11C186.168 652.247 187.679 650.719 189.559 650.719C191.439 650.719 192.95 652.23 192.95 654.11C192.95 655.99 191.439 657.501 189.559 657.501Z" fill="#0B315E"/>
<path d="M221.434 657.501C219.572 657.501 218.043 655.99 218.043 654.11C218.043 652.247 219.554 650.719 221.434 650.719C223.314 650.719 224.825 652.23 224.825 654.11C224.825 655.99 223.297 657.501 221.434 657.501Z" fill="#0B315E"/>
<path d="M253.286 657.501C251.423 657.501 249.895 655.99 249.895 654.11C249.895 652.247 251.406 650.719 253.286 650.719C255.148 650.719 256.677 652.23 256.677 654.11C256.677 655.99 255.166 657.501 253.286 657.501Z" fill="#0B315E"/>
<path d="M285.165 657.501C283.302 657.501 281.773 655.99 281.773 654.11C281.773 652.247 283.285 650.719 285.165 650.719C287.027 650.719 288.556 652.23 288.556 654.11C288.556 655.99 287.027 657.501 285.165 657.501Z" fill="#0B315E"/>
<path d="M317.04 657.501C315.177 657.501 313.648 655.99 313.648 654.11C313.648 652.247 315.16 650.719 317.04 650.719C318.902 650.719 320.431 652.23 320.431 654.11C320.413 655.99 318.902 657.501 317.04 657.501Z" fill="#0B315E"/>
<path d="M348.891 657.501C347.029 657.501 345.5 655.99 345.5 654.11C345.5 652.247 347.011 650.719 348.891 650.719C350.754 650.719 352.282 652.23 352.282 654.11C352.282 655.99 350.754 657.501 348.891 657.501Z" fill="#0B315E"/>
<path d="M380.766 657.501C378.904 657.501 377.375 655.99 377.375 654.11C377.375 652.247 378.886 650.719 380.766 650.719C382.629 650.719 384.157 652.23 384.157 654.11C384.14 655.99 382.629 657.501 380.766 657.501Z" fill="#0B315E"/>
<path d="M412.618 657.501C410.755 657.501 409.227 655.99 409.227 654.11C409.227 652.247 410.738 650.719 412.618 650.719C414.48 650.719 416.009 652.23 416.009 654.11C416.009 655.99 414.498 657.501 412.618 657.501Z" fill="#0B315E"/>
<path d="M1079.31 1033.78C1077.45 1033.78 1075.92 1032.27 1075.92 1030.39C1075.92 1028.53 1077.43 1027 1079.31 1027C1081.18 1027 1082.7 1028.51 1082.7 1030.39C1082.7 1032.27 1081.19 1033.78 1079.31 1033.78Z" fill="#0B315E"/>
<path d="M1015.39 1033.78C1013.53 1033.78 1012 1032.27 1012 1030.39C1012 1028.53 1013.51 1027 1015.39 1027C1017.27 1027 1018.78 1028.51 1018.78 1030.39C1018.78 1032.27 1017.25 1033.78 1015.39 1033.78Z" fill="#0B315E"/>
<path d="M1111.19 1033.78C1109.33 1033.78 1107.8 1032.27 1107.8 1030.39C1107.8 1028.53 1109.31 1027 1111.19 1027C1113.05 1027 1114.58 1028.51 1114.58 1030.39C1114.58 1032.27 1113.05 1033.78 1111.19 1033.78Z" fill="#0B315E"/>
<path d="M1143.06 1033.78C1141.2 1033.78 1139.67 1032.27 1139.67 1030.39C1139.67 1028.53 1141.18 1027 1143.06 1027C1144.93 1027 1146.45 1028.51 1146.45 1030.39C1146.44 1032.27 1144.93 1033.78 1143.06 1033.78Z" fill="#0B315E"/>
<path d="M1174.92 1033.78C1173.06 1033.78 1171.53 1032.27 1171.53 1030.39C1171.53 1028.53 1173.04 1027 1174.92 1027C1176.78 1027 1178.31 1028.51 1178.31 1030.39C1178.31 1032.27 1176.78 1033.78 1174.92 1033.78Z" fill="#0B315E"/>
<path d="M1270.52 1033.78C1268.66 1033.78 1267.13 1032.27 1267.13 1030.39C1267.13 1028.53 1268.64 1027 1270.52 1027C1272.38 1027 1273.91 1028.51 1273.91 1030.39C1273.91 1032.27 1272.38 1033.78 1270.52 1033.78Z" fill="#0B315E"/>
<path d="M85.7037 89.6641C83.7357 89.6641 82.3125 91.0873 82.3125 93.0377C82.3125 95.0056 83.7357 96.4289 85.6861 96.4289C87.6541 96.4289 89.0597 95.0056 89.0773 93.0552C89.0773 91.0873 87.6716 89.6641 85.7037 89.6641Z" fill="#0B315E"/>
<path d="M119.55 89.6608C117.582 89.6257 116.106 91.0138 116.071 92.9641C116.036 94.9321 117.441 96.408 119.374 96.4432C121.342 96.4783 122.801 95.0902 122.836 93.1398C122.888 91.1543 121.5 89.696 119.55 89.6608Z" fill="#0B315E"/>
<path d="M153.266 89.6642C151.298 89.6467 149.858 91.0699 149.84 93.0203C149.822 94.9882 151.246 96.429 153.196 96.4466C155.164 96.4642 156.587 95.0585 156.605 93.0905C156.622 91.105 155.234 89.6818 153.266 89.6642Z" fill="#0B315E"/>
<path d="M1.25659 113.329C3.22453 113.329 4.64778 111.924 4.64778 109.956C4.64778 107.988 3.2421 106.564 1.27416 106.564C-0.693784 106.564 -2.11703 107.988 -2.11703 109.938C-2.1346 111.888 -0.693781 113.312 1.25659 113.329Z" fill="#0B315E"/>
<path d="M34.9778 113.331C36.9457 113.349 38.3865 111.961 38.4217 109.993C38.4393 108.007 37.0512 106.567 35.1008 106.549C33.1328 106.531 31.6745 107.92 31.6569 109.87C31.6217 111.838 33.045 113.296 34.9778 113.331Z" fill="#0B315E"/>
<path d="M68.7664 106.549C66.816 106.567 65.3927 108.007 65.4103 109.975C65.4279 111.926 66.8863 113.349 68.8366 113.331C70.8046 113.314 72.1927 111.873 72.1751 109.905C72.1751 107.937 70.7343 106.531 68.7664 106.549Z" fill="#0B315E"/>
<path d="M102.713 106.55C100.745 106.498 99.2514 107.868 99.1812 109.801C99.1284 111.769 100.499 113.262 102.432 113.333C104.4 113.385 105.893 112.015 105.946 110.082C106.016 108.079 104.663 106.603 102.713 106.55Z" fill="#0B315E"/>
<path d="M136.409 106.549C134.441 106.531 132.983 107.937 132.965 109.87C132.947 111.838 134.353 113.296 136.303 113.314C138.271 113.331 139.712 111.926 139.73 109.975C139.747 108.007 138.359 106.567 136.409 106.549Z" fill="#0B315E"/>
<path d="M18.1666 130.216C20.1345 130.198 21.5402 128.775 21.5226 126.807C21.5226 124.839 20.0994 123.434 18.1314 123.434C16.1635 123.434 14.7578 124.874 14.7578 126.842C14.7754 128.793 16.2162 130.216 18.1666 130.216Z" fill="#0B315E"/>
<path d="M48.5449 126.579C48.4395 128.564 49.7748 130.093 51.6901 130.216C53.658 130.321 55.2043 128.986 55.3097 127.071C55.4151 125.085 54.0973 123.557 52.1821 123.451C50.179 123.328 48.6503 124.664 48.5449 126.579Z" fill="#0B315E"/>
<path d="M85.8282 123.435C83.8602 123.382 82.3667 124.735 82.314 126.686C82.2613 128.654 83.6318 130.147 85.5646 130.217C87.5325 130.27 89.0261 128.9 89.0788 126.967C89.1315 124.964 87.7785 123.488 85.8282 123.435Z" fill="#0B315E"/>
<path d="M119.404 123.434C117.453 123.451 116.048 124.91 116.083 126.878C116.1 128.828 117.559 130.234 119.527 130.216C121.477 130.181 122.865 128.74 122.847 126.772C122.812 124.804 121.372 123.416 119.404 123.434Z" fill="#0B315E"/>
<path d="M35.0338 147.105C37.0017 147.105 38.4074 145.699 38.425 143.731C38.425 141.763 37.0193 140.34 35.0513 140.34C33.0834 140.34 31.6602 141.763 31.6602 143.713C31.6602 145.664 33.0834 147.105 35.0338 147.105Z" fill="#0B315E"/>
<path d="M68.7317 140.319C66.7813 140.354 65.3757 141.813 65.4108 143.78C65.4459 145.731 66.9043 147.137 68.8723 147.101C70.8226 147.066 72.2107 145.625 72.1756 143.64C72.158 141.672 70.7172 140.284 68.7317 140.319Z" fill="#0B315E"/>
<path d="M102.643 140.32C100.675 140.303 99.217 141.709 99.1994 143.641C99.1818 145.609 100.587 147.068 102.538 147.085C104.506 147.103 105.947 145.715 105.964 143.747C105.982 141.779 104.594 140.338 102.643 140.32Z" fill="#0B315E"/>
<path d="M51.7922 163.989C53.7602 164.042 55.2537 162.671 55.3064 160.738C55.3591 158.753 54.0062 157.277 52.0734 157.224C50.1054 157.171 48.6119 158.542 48.5416 160.475C48.4713 162.425 49.8594 163.919 51.7922 163.989Z" fill="#0B315E"/>
<path d="M85.7727 157.206C83.8047 157.171 82.3288 158.559 82.2936 160.509C82.2585 162.477 83.6641 163.953 85.5969 163.988C87.5649 164.023 89.0233 162.635 89.0584 160.685C89.1111 158.699 87.723 157.241 85.7727 157.206Z" fill="#0B315E"/>
<path d="M68.7512 174.09C66.8009 174.126 65.3952 175.566 65.4303 177.534C65.4655 179.485 66.9239 180.89 68.8742 180.855C70.8246 180.82 72.2127 179.379 72.1951 177.411C72.16 175.461 70.7192 174.055 68.7512 174.09Z" fill="#0B315E"/>
<path d="M35.0476 45.7902C37.0155 45.7902 38.4212 44.3669 38.4212 42.3814C38.4212 40.4135 36.998 39.0078 35.03 39.0078C33.0621 39.0078 31.6388 40.4486 31.6564 42.399C31.6564 44.3669 33.0972 45.7902 35.0476 45.7902Z" fill="#0B315E"/>
<path d="M72.1788 42.6254C72.2843 40.6399 70.9664 39.1113 69.0512 39.0058C67.0657 38.9004 65.537 40.2358 65.4316 42.151C65.3262 44.119 66.6616 45.6652 68.5768 45.7706C70.5447 45.8936 72.091 44.5407 72.1788 42.6254Z" fill="#0B315E"/>
<path d="M102.643 39.008C100.675 38.9904 99.217 40.3961 99.1994 42.3289C99.1818 44.2968 100.587 45.7552 102.538 45.7728C104.506 45.7903 105.947 44.4022 105.964 42.4343C105.982 40.4664 104.594 39.0431 102.643 39.008Z" fill="#0B315E"/>
<path d="M18.2141 62.6756C20.1644 62.6405 21.5525 61.1997 21.535 59.2317C21.5174 57.2813 20.0766 55.8757 18.0911 55.9108C16.1407 55.9459 14.735 57.3868 14.7702 59.3547C14.7877 61.2875 16.2461 62.6932 18.2141 62.6756Z" fill="#0B315E"/>
<path d="M51.9909 55.8908C50.023 55.8732 48.5822 57.2613 48.547 59.2117C48.5295 61.1796 49.9176 62.638 51.8679 62.6556C53.8359 62.6732 55.2767 61.2851 55.3118 59.3171C55.3294 57.3667 53.9413 55.9259 51.9909 55.8908Z" fill="#0B315E"/>
<path d="M85.7214 55.8908C83.7535 55.8732 82.3127 57.2789 82.3127 59.2468C82.2951 61.2148 83.7183 62.6556 85.6687 62.6732C87.6366 62.6907 89.0599 61.2675 89.0775 59.3171C89.0775 57.3316 87.6894 55.9084 85.7214 55.8908Z" fill="#0B315E"/>
<path d="M119.456 55.8906C117.488 55.8906 116.082 57.3139 116.082 59.2818C116.082 61.2498 117.523 62.673 119.473 62.6554C121.441 62.6554 122.847 61.2322 122.847 59.2467C122.829 57.2963 121.424 55.8906 119.456 55.8906Z" fill="#0B315E"/>
<path d="M1.22323 79.5579C3.19118 79.5755 4.61442 78.1698 4.63199 76.2019C4.64956 74.2339 3.24389 72.7931 1.29352 72.7756C-0.674422 72.758 -2.11524 74.1812 -2.13281 76.1316C-2.13281 78.082 -0.709566 79.5404 1.22323 79.5579Z" fill="#0B315E"/>
<path d="M34.9967 79.5579C36.9646 79.5755 38.3879 78.1698 38.4054 76.2019C38.423 74.2339 37.0173 72.7931 35.067 72.7756C33.099 72.758 31.6582 74.1812 31.6406 76.1316C31.6406 78.082 33.0639 79.5404 34.9967 79.5579Z" fill="#0B315E"/>
<path d="M68.9434 72.7769C66.9754 72.7241 65.4819 74.0947 65.4116 76.0275C65.3589 77.9954 66.7294 79.4889 68.6622 79.5592C70.6302 79.6295 72.1237 78.2414 72.1764 76.3086C72.2467 74.3055 70.8938 72.8471 68.9434 72.7769Z" fill="#0B315E"/>
<path d="M102.59 72.7754C100.622 72.7754 99.1992 74.1986 99.1992 76.149C99.1992 78.1169 100.622 79.5402 102.573 79.5578C104.541 79.5578 105.964 78.1521 105.964 76.1841C105.964 74.1986 104.558 72.7754 102.59 72.7754Z" fill="#0B315E"/>
<path d="M136.38 72.7756C134.412 72.758 132.971 74.1812 132.953 76.1316C132.936 78.0995 134.359 79.5404 136.309 79.5579C138.277 79.5755 139.701 78.1523 139.718 76.2019C139.736 74.2164 138.348 72.7931 136.38 72.7756Z" fill="#0B315E"/>
<path d="M18.0227 96.444C19.9906 96.5143 21.4842 95.1262 21.5369 93.1934C21.5896 91.2079 20.2366 89.7319 18.3038 89.6616C16.3359 89.6089 14.8424 90.9794 14.7721 92.9122C14.7018 94.8802 16.0899 96.3737 18.0227 96.444Z" fill="#0B315E"/>
<path d="M51.9675 89.6642C49.9996 89.6467 48.5412 91.0523 48.5236 93.0027C48.506 94.9706 49.9117 96.429 51.8621 96.4466C53.83 96.4642 55.2708 95.0585 55.2884 93.1081C55.3235 91.1226 53.9354 89.6818 51.9675 89.6642Z" fill="#0B315E"/>
<path d="M450.963 851.045V765H364.918V851.045V937.09H450.963H537.007V851.045H450.963Z" fill="#2534B4"/>
<path d="M503.604 974.006H328V798.402H417.559V884.447H503.604V974.006ZM331.514 970.492H500.09V887.961H414.045V801.917H331.514V970.492Z" fill="#0B315E"/>
<path d="M468.97 765.932H463.734V840.608H468.97V765.932Z" fill="#000CFF"/>
<path d="M482.31 765.914H477.074V840.59H482.31V765.914Z" fill="#000CFF"/>
<path d="M495.631 765.932H490.395V840.608H495.631V765.932Z" fill="#000CFF"/>
<path d="M508.943 765.932H503.707V840.608H508.943V765.932Z" fill="#000CFF"/>
<path d="M522.26 765.914H517.023V840.59H522.26V765.914Z" fill="#000CFF"/>
<path d="M535.426 765.932H530.348V840.608H535.426V765.932Z" fill="#000CFF"/>
<path d="M170.42 412.158H0V543.149H170.42C188.466 543.114 204.789 535.805 216.632 523.962C228.492 512.119 235.819 495.743 235.819 477.663C235.819 441.519 206.546 412.211 170.42 412.158Z" fill="#2534B4"/>
<path d="M235.815 477.663C235.815 495.743 228.488 512.119 216.628 523.962C204.785 535.805 188.462 543.114 170.416 543.149H170.311C134.185 543.097 104.93 513.788 104.93 477.663C104.93 441.519 134.185 412.211 170.311 412.158H170.416C206.542 412.211 235.815 441.519 235.815 477.663Z" fill="#2534B4"/>
<path d="M170.416 544.906C133.288 544.853 103.172 514.684 103.172 477.662C103.172 440.622 133.288 410.453 170.31 410.4C207.455 410.453 237.572 440.622 237.572 477.662C237.572 495.637 230.579 512.523 217.875 525.209C205.206 537.877 188.356 544.871 170.416 544.906ZM170.416 413.915C135.239 413.967 106.686 442.555 106.686 477.662C106.686 512.751 135.221 541.339 170.31 541.392C187.407 541.356 203.379 534.732 215.38 522.714C227.416 510.695 234.058 494.688 234.058 477.662C234.058 442.573 205.505 413.967 170.416 413.915Z" fill="#0B315E"/>
<path d="M193.075 712H110V729.518H193.075V712Z" fill="#000CFF"/>
<path d="M193.075 750.078H110V767.596H193.075V750.078Z" fill="#2534B4"/>
<path d="M154.525 785.887H110V803.405H154.525V785.887Z" fill="#0B315E"/>
<path d="M1141.94 149H1136V178.923H1141.94V149Z" fill="#0B315E"/>
<path d="M1174.57 149H1168.63V178.923H1174.57V149Z" fill="#0B315E"/>
<path d="M132.016 298.278V304.217H161.939V298.278H132.016Z" fill="#0B315E"/>
<path d="M132 265.645V271.584H161.923V265.645H132Z" fill="#000CFF"/>
<path d="M132 233V238.939H161.923V233H132Z" fill="#2534B4"/>
<path d="M1381.53 222.982C1320.14 222.982 1270.38 272.743 1270.38 334.136C1270.38 395.529 1320.14 445.29 1381.53 445.29C1442.92 445.29 1492.68 395.529 1492.68 334.136C1492.68 272.743 1442.92 222.982 1381.53 222.982ZM1381.53 401.643C1344.24 401.643 1314.02 371.421 1314.02 334.136C1314.02 296.851 1344.24 266.629 1381.53 266.629C1418.81 266.629 1449.04 296.851 1449.04 334.136C1449.04 371.421 1418.81 401.643 1381.53 401.643Z" fill="#000CFF"/>
<path d="M1417.51 925.8C1344.34 925.8 1275.55 897.3 1223.8 845.571L1226.28 843.094C1331.73 948.537 1503.27 948.537 1608.71 843.094C1659.79 792.015 1687.92 724.104 1687.92 651.887C1687.92 579.671 1659.79 511.742 1608.71 460.681L1611.19 458.203C1662.94 509.949 1691.42 578.74 1691.42 651.905C1691.42 725.07 1662.92 793.86 1611.19 845.607C1559.46 897.318 1490.67 925.8 1417.51 925.8Z" fill="#0B315E"/>
<path d="M1417.51 906.841C1352.18 906.841 1286.87 881.978 1237.14 832.252L1239.62 829.775C1337.7 927.856 1497.3 927.856 1595.4 829.775C1693.48 731.694 1693.48 572.08 1595.4 473.999L1597.88 471.521C1697.33 570.973 1697.33 732.801 1597.88 832.27C1548.15 881.978 1482.82 906.841 1417.51 906.841Z" fill="#0B315E"/>
<path d="M1417.51 888.11C1354.41 888.11 1295.09 863.528 1250.46 818.916L1252.94 816.438C1296.9 860.401 1355.35 884.596 1417.49 884.596C1479.66 884.596 1538.1 860.383 1582.05 816.438C1626.01 772.476 1650.2 714.035 1650.2 651.887C1650.2 589.721 1625.99 531.28 1582.05 487.335L1584.52 484.857C1629.14 529.47 1653.72 588.807 1653.72 651.904C1653.72 715.001 1629.14 774.321 1584.52 818.951C1539.93 863.528 1480.61 888.11 1417.51 888.11Z" fill="#0B315E"/>
<path d="M1417.51 869.152C1361.84 869.152 1306.18 847.962 1263.8 805.581L1266.27 803.103C1349.67 886.495 1485.35 886.495 1568.74 803.103C1652.13 719.712 1652.13 584.029 1568.74 500.638L1571.22 498.16C1655.98 582.922 1655.98 720.836 1571.22 805.581C1528.84 847.962 1473.17 869.152 1417.51 869.152Z" fill="#0B315E"/>
<path d="M1417.5 850.316C1366.67 850.316 1315.82 830.97 1277.11 792.262L1279.59 789.784C1355.64 865.831 1479.35 865.831 1555.38 789.784C1631.43 713.737 1631.43 590.021 1555.38 513.991L1557.86 511.514C1635.26 588.914 1635.26 714.879 1557.86 792.279C1519.19 830.97 1468.34 850.316 1417.5 850.316Z" fill="#0B315E"/>
<path d="M1417.5 831.48C1371.49 831.48 1325.47 813.961 1290.45 778.943L1292.93 776.465C1361.61 845.15 1473.38 845.15 1542.06 776.465C1575.34 743.186 1593.67 698.942 1593.67 651.887C1593.67 604.832 1575.34 560.589 1542.06 527.31L1544.54 524.832C1578.49 558.761 1597.17 603.901 1597.17 651.887C1597.17 699.873 1578.47 745.013 1544.54 778.943C1509.52 813.961 1463.52 831.48 1417.5 831.48Z" fill="#0B315E"/>
<path d="M1417.51 812.643C1376.32 812.643 1335.14 796.97 1303.77 765.606L1306.25 763.128C1367.59 824.468 1467.39 824.468 1528.73 763.128C1590.07 701.788 1590.07 601.986 1528.73 540.645L1531.21 538.168C1593.92 600.879 1593.92 702.913 1531.21 765.623C1499.88 796.952 1458.7 812.643 1417.51 812.643Z" fill="#0B315E"/>
<path d="M1526.81 445.604L1516.67 455.724V445.604H1526.81Z" fill="#0B315E"/>
<path d="M1545.57 445.604L1516.67 474.508V464.387L1535.45 445.604H1545.57Z" fill="#0B315E"/>
<path d="M1601.76 445.604L1516.67 530.682V520.719L1591.78 445.604H1601.76Z" fill="#0B315E"/>
<path d="M1583.14 445.604L1516.67 512.057V501.936L1573.02 445.604H1583.14Z" fill="#0B315E"/>
<path d="M1564.36 445.604L1516.67 493.291V483.153L1554.23 445.604H1564.36Z" fill="#0B315E"/>
<path d="M1221.79 951.473C1415.92 951.473 1573.29 794.098 1573.29 599.967C1573.29 405.836 1415.92 248.461 1221.79 248.461C1027.66 248.461 870.281 405.836 870.281 599.967C870.281 794.098 1027.66 951.473 1221.79 951.473Z" fill="url(#paint0_radial_2953_2063)"/>
<path d="M1141.33 899.339C1331.13 899.339 1485 745.473 1485 555.669C1485 365.866 1331.13 212 1141.33 212C951.526 212 797.66 365.866 797.66 555.669C797.66 745.473 951.526 899.339 1141.33 899.339Z" fill="#F9F5EF"/>
<path d="M1146.43 292.67C1148.86 292.67 1150.82 290.704 1150.82 288.277C1150.82 285.851 1148.86 283.885 1146.43 283.885C1144.01 283.885 1142.04 285.851 1142.04 288.277C1142.04 290.704 1144.01 292.67 1146.43 292.67Z" fill="#114A82"/>
<path d="M1192.34 296.483C1189.97 296.483 1188.05 294.568 1188.05 292.195C1188.05 289.823 1189.97 287.908 1192.34 287.908C1194.71 287.908 1196.63 289.823 1196.63 292.195C1196.63 294.568 1194.71 296.483 1192.34 296.483Z" fill="#114A82"/>
<path d="M1236.9 308.151C1239.21 308.151 1241.08 306.279 1241.08 303.969C1241.08 301.659 1239.21 299.787 1236.9 299.787C1234.59 299.787 1232.72 301.659 1232.72 303.969C1232.72 306.279 1234.59 308.151 1236.9 308.151Z" fill="#114A82"/>
<path d="M1278.74 327.338C1276.49 327.338 1274.66 325.511 1274.66 323.262C1274.66 321.013 1276.49 319.186 1278.74 319.186C1280.99 319.186 1282.82 321.013 1282.82 323.262C1282.83 325.511 1281.01 327.338 1278.74 327.338Z" fill="#114A82"/>
<path d="M1316.66 353.413C1314.46 353.413 1312.69 351.638 1312.69 349.442C1312.69 347.245 1314.46 345.471 1316.66 345.471C1318.85 345.471 1320.63 347.245 1320.63 349.442C1320.63 351.638 1318.85 353.413 1316.66 353.413Z" fill="#114A82"/>
<path d="M1349.53 385.602C1351.68 385.602 1353.41 383.864 1353.41 381.719C1353.41 379.575 1351.68 377.836 1349.53 377.836C1347.39 377.836 1345.65 379.575 1345.65 381.719C1345.65 383.864 1347.39 385.602 1349.53 385.602Z" fill="#114A82"/>
<path d="M1376.39 422.925C1374.3 422.925 1372.62 421.238 1372.62 419.147C1372.62 417.056 1374.3 415.369 1376.39 415.369C1378.49 415.369 1380.17 417.056 1380.17 419.147C1380.17 421.238 1378.49 422.925 1376.39 422.925Z" fill="#114A82"/>
<path d="M1400.09 461.275C1400.42 459.273 1399.06 457.388 1397.05 457.065C1395.05 456.742 1393.17 458.103 1392.84 460.105C1392.52 462.107 1393.88 463.992 1395.88 464.315C1397.89 464.639 1399.77 463.277 1400.09 461.275Z" fill="#114A82"/>
<path d="M1409.02 508.526C1407.06 508.526 1405.46 506.927 1405.46 504.959C1405.46 502.992 1407.06 501.393 1409.02 501.393C1410.99 501.393 1412.59 502.992 1412.59 504.959C1412.59 506.927 1410.99 508.526 1409.02 508.526Z" fill="#114A82"/>
<path d="M1413.78 554.249C1411.87 554.249 1410.32 552.703 1410.32 550.788C1410.32 548.872 1411.87 547.326 1413.78 547.326C1415.7 547.326 1417.24 548.872 1417.24 550.788C1417.24 552.703 1415.7 554.249 1413.78 554.249Z" fill="#114A82"/>
<path d="M1410.69 600.126C1408.83 600.126 1407.34 598.615 1407.34 596.77C1407.34 594.908 1408.85 593.414 1410.69 593.414C1412.55 593.414 1414.05 594.925 1414.05 596.77C1414.05 598.615 1412.54 600.126 1410.69 600.126Z" fill="#114A82"/>
<path d="M1399.75 644.773C1397.96 644.773 1396.5 643.314 1396.5 641.522C1396.5 639.73 1397.96 638.271 1399.75 638.271C1401.54 638.271 1403 639.73 1403 641.522C1403 643.314 1401.54 644.773 1399.75 644.773Z" fill="#114A82"/>
<path d="M1381.23 686.874C1379.49 686.874 1378.09 685.469 1378.09 683.729C1378.09 681.99 1379.49 680.584 1381.23 680.584C1382.97 680.584 1384.38 681.99 1384.38 683.729C1384.38 685.451 1382.97 686.874 1381.23 686.874Z" fill="#114A82"/>
<path d="M1355.74 725.144C1354.05 725.144 1352.7 723.773 1352.7 722.104C1352.7 720.417 1354.07 719.064 1355.74 719.064C1357.42 719.064 1358.77 720.435 1358.77 722.104C1358.77 723.773 1357.42 725.144 1355.74 725.144Z" fill="#114A82"/>
<path d="M1324.05 758.494C1322.42 758.494 1321.1 757.176 1321.1 755.542C1321.1 753.908 1322.42 752.59 1324.05 752.59C1325.69 752.59 1327.01 753.908 1327.01 755.542C1326.99 757.176 1325.67 758.494 1324.05 758.494Z" fill="#114A82"/>
<path d="M1287.12 785.939C1285.55 785.939 1284.27 784.674 1284.27 783.093C1284.27 781.511 1285.53 780.246 1287.12 780.246C1288.7 780.246 1289.96 781.511 1289.96 783.093C1289.96 784.674 1288.68 785.939 1287.12 785.939Z" fill="#114A82"/>
<path d="M1246 806.638C1244.49 806.638 1243.26 805.408 1243.26 803.897C1243.26 802.386 1244.49 801.156 1246 801.156C1247.51 801.156 1248.74 802.386 1248.74 803.897C1248.74 805.408 1247.51 806.638 1246 806.638Z" fill="#114A82"/>
<path d="M1201.91 819.92C1200.45 819.92 1199.28 818.742 1199.28 817.284C1199.28 815.826 1200.45 814.648 1201.91 814.648C1203.37 814.648 1204.55 815.826 1204.55 817.284C1204.55 818.742 1203.37 819.92 1201.91 819.92Z" fill="#114A82"/>
<path d="M1156.18 825.422C1154.77 825.422 1153.65 824.297 1153.65 822.892C1153.65 821.486 1154.77 820.361 1156.18 820.361C1157.58 820.361 1158.71 821.486 1158.71 822.892C1158.71 824.297 1157.58 825.422 1156.18 825.422Z" fill="#114A82"/>
<path d="M1110.16 823.049C1108.83 823.049 1107.74 821.959 1107.74 820.624C1107.74 819.289 1108.83 818.199 1110.16 818.199C1111.5 818.199 1112.59 819.289 1112.59 820.624C1112.59 821.959 1111.5 823.049 1110.16 823.049Z" fill="#114A82"/>
<path d="M1065.22 812.822C1063.94 812.822 1062.9 811.786 1062.9 810.503C1062.9 809.22 1063.94 808.184 1065.22 808.184C1066.5 808.184 1067.54 809.22 1067.54 810.503C1067.54 811.786 1066.5 812.822 1065.22 812.822Z" fill="#114A82"/>
<path d="M1022.67 794.969C1021.44 794.969 1020.46 793.967 1020.46 792.755C1020.46 791.525 1021.46 790.541 1022.67 790.541C1023.9 790.541 1024.89 791.543 1024.89 792.755C1024.91 793.985 1023.9 794.969 1022.67 794.969Z" fill="#114A82"/>
<path d="M983.843 770.072C982.666 770.072 981.734 769.124 981.734 767.964C981.734 766.804 982.683 765.855 983.843 765.855C985.003 765.855 985.951 766.804 985.951 767.964C985.951 769.124 985.02 770.072 983.843 770.072Z" fill="#114A82"/>
<path d="M949.81 738.901C950.926 738.901 951.83 737.996 951.83 736.88C951.83 735.764 950.926 734.859 949.81 734.859C948.694 734.859 947.789 735.764 947.789 736.88C947.789 737.996 948.694 738.901 949.81 738.901Z" fill="#114A82"/>
<path d="M1146.43 313.244C1148.86 313.244 1150.82 311.278 1150.82 308.852C1150.82 306.426 1148.86 304.459 1146.43 304.459C1144.01 304.459 1142.04 306.426 1142.04 308.852C1142.04 311.278 1144.01 313.244 1146.43 313.244Z" fill="#114A82"/>
<path d="M1191.8 317.252C1189.46 317.252 1187.57 315.355 1187.57 313.018C1187.57 310.681 1189.46 308.783 1191.8 308.783C1194.14 308.783 1196.04 310.681 1196.04 313.018C1196.04 315.355 1194.14 317.252 1191.8 317.252Z" fill="#114A82"/>
<path d="M1235.62 329.516C1237.86 329.516 1239.68 327.699 1239.68 325.457C1239.68 323.216 1237.86 321.398 1235.62 321.398C1233.38 321.398 1231.56 323.216 1231.56 325.457C1231.56 327.699 1233.38 329.516 1235.62 329.516Z" fill="#114A82"/>
<path d="M1276.39 349.69C1274.24 349.69 1272.48 347.951 1272.48 345.789C1272.48 343.646 1274.22 341.889 1276.39 341.889C1278.53 341.889 1280.29 343.628 1280.29 345.789C1280.27 347.951 1278.53 349.69 1276.39 349.69Z" fill="#114A82"/>
<path d="M1312.71 376.991C1310.65 376.991 1308.98 375.322 1308.98 373.266C1308.98 371.21 1310.65 369.541 1312.71 369.541C1314.77 369.541 1316.43 371.21 1316.43 373.266C1316.43 375.322 1314.78 376.991 1312.71 376.991Z" fill="#114A82"/>
<path d="M1343.4 410.481C1341.43 410.481 1339.84 408.882 1339.84 406.915C1339.84 404.947 1341.43 403.348 1343.4 403.348C1345.37 403.348 1346.97 404.947 1346.97 406.915C1346.97 408.882 1345.37 410.481 1343.4 410.481Z" fill="#114A82"/>
<path d="M1367.42 449.032C1365.54 449.032 1364.03 447.504 1364.03 445.641C1364.03 443.761 1365.56 442.25 1367.42 442.25C1369.28 442.25 1370.81 443.779 1370.81 445.641C1370.81 447.504 1369.3 449.032 1367.42 449.032Z" fill="#114A82"/>
<path d="M1383.89 491.325C1385.67 491.325 1387.12 489.878 1387.12 488.092C1387.12 486.307 1385.67 484.859 1383.89 484.859C1382.1 484.859 1380.65 486.307 1380.65 488.092C1380.65 489.878 1382.1 491.325 1383.89 491.325Z" fill="#114A82"/>
<path d="M1392.22 535.955C1390.53 535.955 1389.16 534.584 1389.16 532.897C1389.16 531.21 1390.53 529.84 1392.22 529.84C1393.9 529.84 1395.27 531.21 1395.27 532.897C1395.27 534.584 1393.9 535.955 1392.22 535.955Z" fill="#114A82"/>
<path d="M1392.22 581.339C1390.62 581.339 1389.32 580.039 1389.32 578.44C1389.32 576.841 1390.62 575.541 1392.22 575.541C1393.81 575.541 1395.11 576.841 1395.11 578.44C1395.11 580.039 1393.81 581.339 1392.22 581.339Z" fill="#114A82"/>
<path d="M1383.89 625.953C1382.38 625.953 1381.16 624.723 1381.16 623.229C1381.16 621.718 1382.39 620.506 1383.89 620.506C1385.4 620.506 1386.61 621.736 1386.61 623.229C1386.61 624.723 1385.4 625.953 1383.89 625.953Z" fill="#114A82"/>
<path d="M1367.42 668.265C1366 668.265 1364.86 667.123 1364.86 665.7C1364.86 664.277 1366 663.135 1367.42 663.135C1368.84 663.135 1369.99 664.277 1369.99 665.7C1369.99 667.106 1368.84 668.265 1367.42 668.265Z" fill="#114A82"/>
<path d="M1343.42 706.799C1342.1 706.799 1341.03 705.727 1341.03 704.409C1341.03 703.091 1342.1 702.02 1343.42 702.02C1344.74 702.02 1345.81 703.091 1345.81 704.409C1345.81 705.727 1344.74 706.799 1343.42 706.799Z" fill="#114A82"/>
<path d="M1312.73 740.287C1311.5 740.287 1310.5 739.286 1310.5 738.056C1310.5 736.826 1311.5 735.824 1312.73 735.824C1313.96 735.824 1314.96 736.826 1314.96 738.056C1314.94 739.286 1313.96 740.287 1312.73 740.287Z" fill="#114A82"/>
<path d="M1276.38 767.592C1275.24 767.592 1274.33 766.661 1274.33 765.536C1274.33 764.412 1275.26 763.48 1276.38 763.48C1277.53 763.48 1278.44 764.412 1278.44 765.536C1278.44 766.661 1277.53 767.592 1276.38 767.592Z" fill="#114A82"/>
<path d="M1235.62 787.764C1234.57 787.764 1233.72 786.921 1233.72 785.866C1233.72 784.812 1234.57 783.969 1235.62 783.969C1236.67 783.969 1237.52 784.812 1237.52 785.866C1237.52 786.921 1236.67 787.764 1235.62 787.764Z" fill="#114A82"/>
<path d="M1191.8 800.047C1192.76 800.047 1193.54 799.269 1193.54 798.308C1193.54 797.347 1192.76 796.568 1191.8 796.568C1190.84 796.568 1190.06 797.347 1190.06 798.308C1190.06 799.269 1190.84 800.047 1191.8 800.047Z" fill="#114A82"/>
<path d="M1146.43 804.032C1147.29 804.032 1147.99 803.332 1147.99 802.468C1147.99 801.604 1147.29 800.904 1146.43 800.904C1145.57 800.904 1144.87 801.604 1144.87 802.468C1144.87 803.332 1145.57 804.032 1146.43 804.032Z" fill="#114A82"/>
<path d="M1146.43 336.967C1148.86 336.967 1150.82 335 1150.82 332.574C1150.82 330.148 1148.86 328.182 1146.43 328.182C1144.01 328.182 1142.04 330.148 1142.04 332.574C1142.04 335 1144.01 336.967 1146.43 336.967Z" fill="#114A82"/>
<path d="M1189.97 340.817C1187.76 340.817 1185.98 339.025 1185.98 336.828C1185.98 334.615 1187.78 332.84 1189.97 332.84C1192.17 332.84 1193.96 334.632 1193.96 336.828C1193.98 339.025 1192.19 340.817 1189.97 340.817Z" fill="#114A82"/>
<path d="M1231.84 353.099C1229.85 353.099 1228.24 351.482 1228.24 349.497C1228.24 347.511 1229.85 345.895 1231.84 345.895C1233.83 345.895 1235.44 347.511 1235.44 349.497C1235.44 351.482 1233.83 353.099 1231.84 353.099Z" fill="#114A82"/>
<path d="M1270.4 373.339C1272.16 373.339 1273.6 371.907 1273.6 370.141C1273.6 368.375 1272.16 366.943 1270.4 366.943C1268.63 366.943 1267.2 368.375 1267.2 370.141C1267.2 371.907 1268.63 373.339 1270.4 373.339Z" fill="#114A82"/>
<path d="M1304.2 400.713C1302.66 400.713 1301.39 399.447 1301.39 397.901C1301.39 396.355 1302.66 395.09 1304.2 395.09C1305.75 395.09 1307.01 396.355 1307.01 397.901C1307.01 399.447 1305.75 400.713 1304.2 400.713Z" fill="#114A82"/>
<path d="M1331.96 434.119C1330.63 434.119 1329.55 433.047 1329.55 431.712C1329.55 430.377 1330.63 429.305 1331.96 429.305C1333.3 429.305 1334.37 430.377 1334.37 431.712C1334.37 433.047 1333.3 434.119 1331.96 434.119Z" fill="#114A82"/>
<path d="M1352.61 472.284C1351.5 472.284 1350.59 471.387 1350.59 470.263C1350.59 469.156 1351.49 468.242 1352.61 468.242C1353.72 468.242 1354.63 469.138 1354.63 470.263C1354.63 471.387 1353.72 472.284 1352.61 472.284Z" fill="#114A82"/>
<path d="M1365.29 513.747C1364.4 513.747 1363.68 513.026 1363.68 512.13C1363.68 511.234 1364.4 510.514 1365.29 510.514C1366.19 510.514 1366.91 511.234 1366.91 512.13C1366.91 513.026 1366.19 513.747 1365.29 513.747Z" fill="#114A82"/>
<path d="M1369.55 556.882C1370.22 556.882 1370.76 556.339 1370.76 555.669C1370.76 555 1370.22 554.457 1369.55 554.457C1368.88 554.457 1368.34 555 1368.34 555.669C1368.34 556.339 1368.88 556.882 1369.55 556.882Z" fill="#114A82"/>
<path d="M945.894 663.153C845.599 663.153 764 581.554 764 481.242C764 380.929 845.599 299.348 945.894 299.348C1046.19 299.348 1127.81 380.947 1127.81 481.242C1127.81 581.536 1046.21 663.153 945.894 663.153ZM945.894 302.862C847.532 302.862 767.514 382.88 767.514 481.242C767.514 579.604 847.532 659.639 945.894 659.639C1044.26 659.639 1124.29 579.621 1124.29 481.242C1124.29 382.88 1044.26 302.862 945.894 302.862Z" fill="#0B315E"/>
<path d="M945.893 633.404C861.992 633.404 793.746 565.141 793.746 481.258C793.746 397.357 862.009 329.111 945.893 329.111C1029.79 329.111 1098.04 397.374 1098.04 481.258C1098.06 565.141 1029.79 633.404 945.893 633.404ZM945.893 341.13C868.633 341.13 805.782 403.981 805.782 481.24C805.782 558.5 868.633 621.351 945.893 621.351C1023.15 621.351 1086 558.5 1086 481.24C1086 403.981 1023.15 341.13 945.893 341.13Z" fill="#2534B4"/>
<path d="M945.895 603.64C878.405 603.64 823.496 548.731 823.496 481.241C823.496 413.751 878.405 358.842 945.895 358.842C1013.38 358.842 1068.29 413.751 1068.29 481.241C1068.29 548.731 1013.38 603.64 945.895 603.64ZM945.895 362.356C880.338 362.356 827.01 415.684 827.01 481.241C827.01 546.798 880.338 600.126 945.895 600.126C1011.45 600.126 1064.78 546.798 1064.78 481.241C1064.78 415.684 1011.45 362.356 945.895 362.356Z" fill="#0B315E"/>
<path d="M945.894 573.893C894.815 573.893 853.242 532.337 853.242 481.241C853.242 430.145 894.797 388.59 945.894 388.59C996.99 388.59 1038.55 430.145 1038.55 481.241C1038.55 532.337 996.99 573.893 945.894 573.893ZM945.894 392.122C896.748 392.122 856.756 432.113 856.756 481.259C856.756 530.405 896.748 570.396 945.894 570.396C995.039 570.396 1035.03 530.405 1035.03 481.259C1035.03 432.113 995.057 392.122 945.894 392.122Z" fill="#0B315E"/>
<path d="M945.894 544.146C911.209 544.146 883.008 515.927 883.008 481.242C883.008 446.557 911.227 418.355 945.894 418.355C980.579 418.355 1008.8 446.574 1008.8 481.242C1008.8 515.927 980.579 544.146 945.894 544.146ZM945.894 421.87C913.16 421.87 886.522 448.507 886.522 481.242C886.522 513.976 913.16 540.631 945.894 540.631C978.629 540.631 1005.28 513.994 1005.28 481.242C1005.28 448.49 978.646 421.87 945.894 421.87Z" fill="#0B315E"/>
<path d="M945.893 514.397C927.619 514.397 912.754 499.532 912.754 481.258C912.754 462.984 927.619 448.119 945.893 448.119C964.166 448.119 979.031 462.984 979.031 481.258C979.049 499.514 964.166 514.397 945.893 514.397ZM945.893 451.616C929.552 451.616 916.268 464.899 916.268 481.24C916.268 497.581 929.552 510.865 945.893 510.865C962.234 510.865 975.517 497.581 975.517 481.24C975.535 464.917 962.234 451.616 945.893 451.616Z" fill="#0B315E"/>
<path d="M1190.3 820.234C1313.88 820.234 1414.07 720.051 1414.07 596.469C1414.07 472.886 1313.88 372.703 1190.3 372.703C1066.72 372.703 966.535 472.886 966.535 596.469C966.535 720.051 1066.72 820.234 1190.3 820.234Z" fill="url(#paint1_radial_2953_2063)"/>
<path d="M1141.33 764.764C1256.81 764.764 1350.43 671.149 1350.43 555.67C1350.43 440.191 1256.81 346.576 1141.33 346.576C1025.85 346.576 932.238 440.191 932.238 555.67C932.238 671.149 1025.85 764.764 1141.33 764.764Z" fill="#0B315E"/>
<path d="M1117.24 655.208L1129.52 642.926L1125.9 639.307L1110.02 655.208L1125.9 671.11L1129.52 667.49L1117.24 655.208Z" fill="white"/>
<path d="M1138.67 655.208L1150.95 642.926L1147.34 639.307L1131.43 655.208L1147.34 671.11L1150.95 667.49L1138.67 655.208Z" fill="white"/>
<path d="M1160.38 655.208L1172.66 642.926L1169.04 639.307L1153.14 655.208L1169.04 671.11L1172.66 667.49L1160.38 655.208Z" fill="white"/>
<path d="M1165.42 476.355L1153.14 488.637L1156.76 492.239L1172.66 476.355L1156.76 460.453L1153.14 464.073L1165.42 476.355Z" fill="white"/>
<path d="M1143.98 476.355L1131.7 488.637L1135.32 492.239L1151.22 476.355L1135.32 460.453L1131.7 464.073L1143.98 476.355Z" fill="white"/>
<path d="M1122.3 476.355L1110.02 488.637L1113.62 492.239L1129.52 476.355L1113.62 460.453L1110.02 464.073L1122.3 476.355Z" fill="white"/>
<path d="M1486.9 725.091C1528.66 683.337 1528.66 615.64 1486.9 573.886C1445.15 532.132 1377.45 532.132 1335.7 573.886C1293.94 615.64 1293.94 683.337 1335.7 725.091C1377.45 766.845 1445.15 766.845 1486.9 725.091Z" fill="#2534B4"/>
<path d="M1427.63 688.339C1449.08 679.303 1459.13 654.594 1450.1 633.15C1441.06 611.706 1416.35 601.648 1394.91 610.684C1373.47 619.72 1363.41 644.429 1372.44 665.872C1381.48 687.316 1406.19 697.375 1427.63 688.339Z" fill="#0B315E"/>
<path d="M1759.73 538.387L1787.41 510.713C1782.49 513.524 1777.94 516.88 1773.81 520.693L1769.71 524.787C1765.9 528.899 1762.55 533.467 1759.73 538.387Z" fill="#2534B4"/>
<path d="M1751.48 560.388L1809.41 502.457C1807.81 502.773 1806.23 503.16 1804.66 503.582L1752.6 555.644C1752.16 557.208 1751.79 558.789 1751.48 560.388Z" fill="#2534B4"/>
<path d="M1750 575.112C1750 575.27 1750 575.428 1750 575.587L1824.59 500.998C1824.43 500.998 1824.27 500.998 1824.11 500.998C1823.04 500.998 1821.97 501.033 1820.9 501.068L1750.07 571.897C1750.04 572.968 1750 574.023 1750 575.112Z" fill="#2534B4"/>
<path d="M1751.16 588.166L1837.2 502.121C1836.17 501.945 1835.11 501.769 1834.08 501.629L1750.68 585.02C1750.81 586.092 1750.96 587.129 1751.16 588.166Z" fill="#2534B4"/>
<path d="M1753.97 599.096L1848.12 504.951C1847.2 504.635 1846.29 504.353 1845.37 504.072L1753.11 596.337C1753.37 597.268 1753.65 598.182 1753.97 599.096Z" fill="#2534B4"/>
<path d="M1758.07 608.744L1857.78 509.029C1856.97 508.625 1856.16 508.221 1855.34 507.852L1756.87 606.301C1757.26 607.127 1757.64 607.935 1758.07 608.744Z" fill="#2534B4"/>
<path d="M1763.2 617.336L1866.36 514.177C1865.64 513.685 1864.92 513.193 1864.2 512.719L1761.76 615.157C1762.23 615.895 1762.71 616.616 1763.2 617.336Z" fill="#2534B4"/>
<path d="M1769.29 624.978L1874 520.273C1873.37 519.693 1872.72 519.131 1872.07 518.586L1767.59 623.063C1768.15 623.713 1768.71 624.345 1769.29 624.978Z" fill="#2534B4"/>
<path d="M1776.29 631.726L1880.75 527.267C1880.2 526.617 1879.64 525.967 1879.06 525.334L1774.36 630.039C1774.99 630.619 1775.64 631.181 1776.29 631.726Z" fill="#2534B4"/>
<path d="M1784.19 637.561L1886.6 535.157C1886.12 534.419 1885.65 533.699 1885.14 532.996L1782.02 636.12C1782.74 636.612 1783.46 637.104 1784.19 637.561Z" fill="#2534B4"/>
<path d="M1793.07 642.425L1891.45 544.046C1891.06 543.22 1890.67 542.412 1890.27 541.604L1790.62 641.248C1791.43 641.652 1792.24 642.039 1793.07 642.425Z" fill="#2534B4"/>
<path d="M1803.05 646.186L1895.22 554.026C1894.94 553.095 1894.66 552.181 1894.36 551.285L1800.3 645.342C1801.2 645.623 1802.11 645.905 1803.05 646.186Z" fill="#2534B4"/>
<path d="M1814.37 648.595L1897.62 565.344C1897.48 564.29 1897.32 563.253 1897.14 562.199L1811.24 648.103C1812.27 648.297 1813.31 648.455 1814.37 648.595Z" fill="#2534B4"/>
<path d="M1824.13 649.245C1825.27 649.245 1826.41 649.21 1827.54 649.157L1898.17 578.522C1898.23 577.397 1898.26 576.255 1898.26 575.113C1898.26 575.025 1898.26 574.92 1898.26 574.832L1823.87 649.227C1823.94 649.227 1824.04 649.245 1824.13 649.245Z" fill="#2534B4"/>
<path d="M1843.87 646.572L1895.59 594.844C1896.03 593.28 1896.42 591.681 1896.74 590.082L1839.09 647.732C1840.7 647.398 1842.3 647.012 1843.87 646.572Z" fill="#2534B4"/>
<path d="M1888.27 612.291L1861.31 639.245C1872.47 632.761 1881.78 623.449 1888.27 612.291Z" fill="#2534B4"/>
<path d="M623.227 1023.31L652.324 994.211C647.158 997.163 642.361 1000.69 638.021 1004.7L633.716 1009.01C629.71 1013.36 626.178 1018.14 623.227 1023.31Z" fill="#0B315E"/>
<path d="M614.547 1046.43L675.448 985.527C673.761 985.861 672.109 986.265 670.458 986.705L615.724 1041.44C615.267 1043.09 614.881 1044.76 614.547 1046.43Z" fill="#0B315E"/>
<path d="M613 1061.91C613 1062.07 613 1062.24 613 1062.4L691.401 984C691.243 984 691.068 984 690.909 984C689.785 984 688.643 984.035 687.536 984.07L613.07 1058.54C613.035 1059.66 613 1060.78 613 1061.91Z" fill="#0B315E"/>
<path d="M614.209 1075.65L704.646 985.213C703.557 985.019 702.45 984.844 701.36 984.703L613.699 1072.36C613.84 1073.45 614.015 1074.56 614.209 1075.65Z" fill="#0B315E"/>
<path d="M617.168 1087.12L716.127 988.164C715.178 987.83 714.212 987.531 713.245 987.25L616.254 1084.24C616.535 1085.21 616.851 1086.17 617.168 1087.12Z" fill="#0B315E"/>
<path d="M621.466 1097.26L726.277 992.453C725.433 992.013 724.572 991.609 723.711 991.205L620.219 1094.7C620.623 1095.58 621.027 1096.42 621.466 1097.26Z" fill="#0B315E"/>
<path d="M626.884 1106.29L735.314 997.863C734.559 997.336 733.803 996.826 733.03 996.334L625.355 1104.01C625.847 1104.8 626.357 1105.55 626.884 1106.29Z" fill="#0B315E"/>
<path d="M633.279 1114.34L743.343 1004.27C742.675 1003.68 742.007 1003.08 741.322 1002.5L631.504 1112.32C632.084 1113 632.664 1113.67 633.279 1114.34Z" fill="#0B315E"/>
<path d="M640.62 1121.42L750.421 1011.62C749.841 1010.94 749.244 1010.25 748.646 1009.58L638.582 1119.65C639.267 1120.26 639.935 1120.84 640.62 1121.42Z" fill="#0B315E"/>
<path d="M648.929 1127.57L756.568 1019.93C756.076 1019.16 755.567 1018.4 755.039 1017.65L646.645 1126.04C647.4 1126.55 648.156 1127.06 648.929 1127.57Z" fill="#0B315E"/>
<path d="M658.259 1132.67L761.664 1029.26C761.259 1028.4 760.855 1027.54 760.416 1026.7L655.676 1131.44C656.537 1131.86 657.398 1132.28 658.259 1132.67Z" fill="#0B315E"/>
<path d="M668.753 1136.62L765.639 1039.74C765.358 1038.77 765.041 1037.8 764.725 1036.85L665.871 1135.71C666.802 1136.04 667.769 1136.34 668.753 1136.62Z" fill="#0B315E"/>
<path d="M680.647 1139.15L768.15 1051.65C768.01 1050.54 767.834 1049.43 767.641 1048.34L677.344 1138.64C678.451 1138.85 679.54 1139.01 680.647 1139.15Z" fill="#0B315E"/>
<path d="M690.912 1139.84C692.124 1139.84 693.319 1139.8 694.496 1139.75L768.734 1065.51C768.786 1064.32 768.821 1063.12 768.821 1061.93C768.821 1061.82 768.821 1061.73 768.821 1061.63L690.613 1139.84C690.719 1139.84 690.824 1139.84 690.912 1139.84Z" fill="#0B315E"/>
<path d="M828.227 43.3084L857.324 14.2109C852.158 17.1629 847.361 20.6946 843.021 24.7008L838.716 29.0056C834.71 33.3457 831.178 38.1425 828.227 43.3084Z" fill="#0B315E"/>
<path d="M819.547 66.4281L880.448 5.52734C878.761 5.86119 877.109 6.26532 875.457 6.70459L820.724 61.438C820.285 63.0896 819.881 64.7413 819.547 66.4281Z" fill="#0B315E"/>
<path d="M818 81.9094C818 82.0676 818 82.2433 818 82.4014L896.419 4C896.261 4 896.085 4 895.927 4C894.785 4 893.66 4.03514 892.553 4.07028L818.088 78.5358C818.035 79.6603 818 80.7849 818 81.9094Z" fill="#0B315E"/>
<path d="M819.209 95.6502L909.646 5.21268C908.557 5.0194 907.45 4.84369 906.361 4.70312L818.699 92.3644C818.84 93.4538 819.016 94.5608 819.209 95.6502Z" fill="#0B315E"/>
<path d="M822.168 107.123L921.127 8.16369C920.178 7.82984 919.212 7.53113 918.245 7.25L821.254 104.241C821.553 105.208 821.851 106.174 822.168 107.123Z" fill="#0B315E"/>
<path d="M826.466 117.263L931.277 12.4526C930.433 12.0309 929.572 11.6092 928.711 11.2051L825.219 114.698C825.623 115.559 826.027 116.42 826.466 117.263Z" fill="#0B315E"/>
<path d="M831.884 126.293L940.314 17.8627C939.559 17.3355 938.803 16.826 938.03 16.334L830.355 124.009C830.847 124.782 831.357 125.537 831.884 126.293Z" fill="#0B315E"/>
<path d="M838.279 134.339L948.343 24.2747C947.675 23.6773 947.007 23.0798 946.322 22.5L836.504 132.318C837.084 132.986 837.681 133.671 838.279 134.339Z" fill="#0B315E"/>
<path d="M845.64 141.423L955.44 31.6222C954.861 30.9369 954.263 30.2517 953.666 29.584L843.602 139.648C844.269 140.246 844.937 140.843 845.64 141.423Z" fill="#0B315E"/>
<path d="M853.929 147.554L961.568 39.9151C961.076 39.142 960.567 38.3864 960.039 37.6309L851.645 146.043C852.4 146.553 853.156 147.062 853.929 147.554Z" fill="#0B315E"/>
<path d="M863.259 152.667L966.663 49.2626C966.259 48.4016 965.855 47.5407 965.416 46.6973L860.676 151.437C861.537 151.859 862.398 152.263 863.259 152.667Z" fill="#0B315E"/>
<path d="M873.753 156.621L970.639 59.7351C970.358 58.7687 970.041 57.8023 969.725 56.8535L870.871 155.707C871.82 156.041 872.786 156.34 873.753 156.621Z" fill="#0B315E"/>
<path d="M885.663 159.148L973.166 71.6451C973.025 70.5382 972.85 69.4312 972.656 68.3418L882.359 158.639C883.449 158.832 884.556 159.008 885.663 159.148Z" fill="#0B315E"/>
<path d="M895.924 159.835C897.136 159.835 898.331 159.8 899.508 159.747L973.745 85.5101C973.798 84.3153 973.833 83.1205 973.833 81.9257C973.833 81.8202 973.833 81.7324 973.833 81.627L895.625 159.835C895.713 159.818 895.818 159.835 895.924 159.835Z" fill="#0B315E"/>
<path d="M916.664 157.022L971.046 102.641C971.503 100.989 971.907 99.3196 972.258 97.6328L911.656 158.235C913.343 157.883 915.012 157.479 916.664 157.022Z" fill="#0B315E"/>
<path d="M963.326 120.986L934.984 149.328C946.722 142.511 956.509 132.724 963.326 120.986Z" fill="#0B315E"/>
<path d="M424 48V116.404H492.404V48H424ZM482.88 106.88H433.523V57.5234H482.88V106.88Z" fill="#2534B4"/>
<path d="M518.035 578.695L518 612.326L547.133 595.528L518.035 578.695Z" fill="#000CFF"/>
<path d="M377.035 190L377 228L406.133 209.02L377.035 190Z" fill="#000CFF"/>
<path d="M558.396 560L558.344 631.057L619.912 595.581L558.396 560ZM568.008 576.692L600.637 595.564L567.99 614.382L568.008 576.692Z" fill="#0B315E"/>
<path d="M608 812.531L690.654 812.601L649.38 741L608 812.531ZM627.416 801.339L649.362 763.403L671.255 801.374L627.416 801.339Z" fill="#0B315E"/>
<path d="M711.883 921.979C711.883 882.602 743.792 850.693 783.168 850.693C822.544 850.693 854.453 882.602 854.453 921.979H711.883Z" fill="#000CFF"/>
<path d="M510.234 462.117H358L434.117 386L510.234 462.117Z" fill="#000CFF"/>
<path d="M150.02 1062.02C150.02 979.174 82.8644 912 0 912V970.898C50.3231 970.898 91.1227 1011.7 91.1227 1062.02H150.02Z" fill="#2534B4"/>
<path d="M1970 32H1870V132H1970V32Z" fill="#2534B4"/>
<path d="M1941.53 60.4648H1898.47V103.516H1941.53V60.4648Z" fill="#114A82"/>
<path d="M1815.21 266.841C1813.35 266.841 1811.82 265.33 1811.82 263.45C1811.82 261.587 1813.33 260.059 1815.21 260.059C1817.09 260.059 1818.6 261.57 1818.6 263.45C1818.6 265.312 1817.07 266.841 1815.21 266.841Z" fill="#0B315E"/>
<path d="M1847.09 266.841C1845.22 266.841 1843.7 265.33 1843.7 263.45C1843.7 261.587 1845.21 260.059 1847.09 260.059C1848.95 260.059 1850.48 261.57 1850.48 263.45C1850.46 265.312 1848.95 266.841 1847.09 266.841Z" fill="#0B315E"/>
<path d="M1878.94 266.841C1877.08 266.841 1875.55 265.33 1875.55 263.45C1875.55 261.587 1877.06 260.059 1878.94 260.059C1880.8 260.059 1882.33 261.57 1882.33 263.45C1882.33 265.312 1880.82 266.841 1878.94 266.841Z" fill="#0B315E"/>
<path d="M1910.82 266.841C1908.95 266.841 1907.43 265.33 1907.43 263.45C1907.43 261.587 1908.94 260.059 1910.82 260.059C1912.68 260.059 1914.21 261.57 1914.21 263.45C1914.21 265.312 1912.68 266.841 1910.82 266.841Z" fill="#0B315E"/>
<path d="M1815.21 295.902C1813.35 295.902 1811.82 294.39 1811.82 292.51C1811.82 290.648 1813.33 289.119 1815.21 289.119C1817.09 289.119 1818.6 290.63 1818.6 292.51C1818.6 294.373 1817.07 295.902 1815.21 295.902Z" fill="#0B315E"/>
<path d="M1847.09 295.902C1845.22 295.902 1843.7 294.39 1843.7 292.51C1843.7 290.648 1845.21 289.119 1847.09 289.119C1848.95 289.119 1850.48 290.63 1850.48 292.51C1850.46 294.373 1848.95 295.902 1847.09 295.902Z" fill="#0B315E"/>
<path d="M1878.94 295.902C1877.08 295.902 1875.55 294.39 1875.55 292.51C1875.55 290.648 1877.06 289.119 1878.94 289.119C1880.8 289.119 1882.33 290.63 1882.33 292.51C1882.33 294.373 1880.82 295.902 1878.94 295.902Z" fill="#0B315E"/>
<path d="M1910.82 295.902C1908.95 295.902 1907.43 294.39 1907.43 292.51C1907.43 290.648 1908.94 289.119 1910.82 289.119C1912.68 289.119 1914.21 290.63 1914.21 292.51C1914.21 294.373 1912.68 295.902 1910.82 295.902Z" fill="#0B315E"/>
<path d="M1815.21 324.95C1813.35 324.95 1811.82 323.439 1811.82 321.559C1811.82 319.697 1813.33 318.168 1815.21 318.168C1817.09 318.168 1818.6 319.679 1818.6 321.559C1818.6 323.439 1817.07 324.95 1815.21 324.95Z" fill="#0B315E"/>
<path d="M1847.09 324.95C1845.22 324.95 1843.7 323.439 1843.7 321.559C1843.7 319.697 1845.21 318.168 1847.09 318.168C1848.95 318.168 1850.48 319.679 1850.48 321.559C1850.46 323.439 1848.95 324.95 1847.09 324.95Z" fill="#0B315E"/>
<path d="M1878.94 324.95C1877.08 324.95 1875.55 323.439 1875.55 321.559C1875.55 319.697 1877.06 318.168 1878.94 318.168C1880.8 318.168 1882.33 319.679 1882.33 321.559C1882.33 323.439 1880.82 324.95 1878.94 324.95Z" fill="#0B315E"/>
<path d="M1910.82 324.95C1908.95 324.95 1907.43 323.439 1907.43 321.559C1907.43 319.697 1908.94 318.168 1910.82 318.168C1912.68 318.168 1914.21 319.679 1914.21 321.559C1914.21 323.439 1912.68 324.95 1910.82 324.95Z" fill="#0B315E"/>
<path d="M1815.21 354.009C1813.35 354.009 1811.82 352.498 1811.82 350.618C1811.82 348.755 1813.33 347.227 1815.21 347.227C1817.09 347.227 1818.6 348.738 1818.6 350.618C1818.6 352.48 1817.07 354.009 1815.21 354.009Z" fill="#0B315E"/>
<path d="M1847.09 354.009C1845.22 354.009 1843.7 352.498 1843.7 350.618C1843.7 348.755 1845.21 347.227 1847.09 347.227C1848.95 347.227 1850.48 348.738 1850.48 350.618C1850.46 352.48 1848.95 354.009 1847.09 354.009Z" fill="#0B315E"/>
<path d="M1878.94 354.009C1877.08 354.009 1875.55 352.498 1875.55 350.618C1875.55 348.755 1877.06 347.227 1878.94 347.227C1880.8 347.227 1882.33 348.738 1882.33 350.618C1882.33 352.48 1880.82 354.009 1878.94 354.009Z" fill="#0B315E"/>
<path d="M1910.82 354.009C1908.95 354.009 1907.43 352.498 1907.43 350.618C1907.43 348.755 1908.94 347.227 1910.82 347.227C1912.68 347.227 1914.21 348.738 1914.21 350.618C1914.21 352.48 1912.68 354.009 1910.82 354.009Z" fill="#0B315E"/>
<path d="M1815.21 383.075C1813.35 383.075 1811.82 381.564 1811.82 379.684C1811.82 377.822 1813.33 376.293 1815.21 376.293C1817.09 376.293 1818.6 377.804 1818.6 379.684C1818.6 381.547 1817.07 383.075 1815.21 383.075Z" fill="#0B315E"/>
<path d="M1847.09 383.075C1845.22 383.075 1843.7 381.564 1843.7 379.684C1843.7 377.822 1845.21 376.293 1847.09 376.293C1848.95 376.293 1850.48 377.804 1850.48 379.684C1850.46 381.547 1848.95 383.075 1847.09 383.075Z" fill="#0B315E"/>
<path d="M1878.94 383.075C1877.08 383.075 1875.55 381.564 1875.55 379.684C1875.55 377.822 1877.06 376.293 1878.94 376.293C1880.8 376.293 1882.33 377.804 1882.33 379.684C1882.33 381.547 1880.82 383.075 1878.94 383.075Z" fill="#0B315E"/>
<path d="M1910.82 383.075C1908.95 383.075 1907.43 381.564 1907.43 379.684C1907.43 377.822 1908.94 376.293 1910.82 376.293C1912.68 376.293 1914.21 377.804 1914.21 379.684C1914.21 381.547 1912.68 383.075 1910.82 383.075Z" fill="#0B315E"/>
<path d="M1815.21 412.116C1813.35 412.116 1811.82 410.605 1811.82 408.725C1811.82 406.863 1813.33 405.334 1815.21 405.334C1817.09 405.334 1818.6 406.845 1818.6 408.725C1818.6 410.605 1817.07 412.116 1815.21 412.116Z" fill="#0B315E"/>
<path d="M1847.09 412.116C1845.22 412.116 1843.7 410.605 1843.7 408.725C1843.7 406.863 1845.21 405.334 1847.09 405.334C1848.95 405.334 1850.48 406.845 1850.48 408.725C1850.46 410.605 1848.95 412.116 1847.09 412.116Z" fill="#0B315E"/>
<path d="M1878.94 412.116C1877.08 412.116 1875.55 410.605 1875.55 408.725C1875.55 406.863 1877.06 405.334 1878.94 405.334C1880.8 405.334 1882.33 406.845 1882.33 408.725C1882.33 410.605 1880.82 412.116 1878.94 412.116Z" fill="#0B315E"/>
<path d="M1910.82 412.116C1908.95 412.116 1907.43 410.605 1907.43 408.725C1907.43 406.863 1908.94 405.334 1910.82 405.334C1912.68 405.334 1914.21 406.845 1914.21 408.725C1914.21 410.605 1912.68 412.116 1910.82 412.116Z" fill="#0B315E"/>
<path d="M1949.44 434.909L1800 285.469H1949.44V434.909Z" fill="#2534B4"/>
<path d="M283.392 315.44L276.952 309L283.392 302.56C284.203 301.75 284.203 300.418 283.392 299.608C282.582 298.797 281.25 298.797 280.44 299.608L274 306.048L267.56 299.608C266.75 298.797 265.418 298.797 264.608 299.608C263.797 300.418 263.797 301.75 264.608 302.56L271.048 309L264.608 315.44C263.797 316.25 263.797 317.582 264.608 318.392C265.418 319.203 266.75 319.203 267.56 318.392L274 311.952L280.44 318.392C281.25 319.203 282.582 319.203 283.392 318.392C284.203 317.582 284.203 316.25 283.392 315.44Z" fill="#000CFF"/>
<path d="M283.392 372.44L276.952 366L283.392 359.56C284.203 358.75 284.203 357.418 283.392 356.608C282.582 355.797 281.25 355.797 280.44 356.608L274 363.048L267.56 356.608C266.75 355.797 265.418 355.797 264.608 356.608C263.797 357.418 263.797 358.75 264.608 359.56L271.048 366L264.608 372.44C263.797 373.25 263.797 374.582 264.608 375.392C265.418 376.203 266.75 376.203 267.56 375.392L274 368.952L280.44 375.392C281.25 376.203 282.582 376.203 283.392 375.392C284.203 374.582 284.203 373.25 283.392 372.44Z" fill="#000CFF"/>
<path d="M337.392 345.44L330.952 339L337.392 332.56C338.203 331.75 338.203 330.418 337.392 329.608C336.582 328.797 335.25 328.797 334.44 329.608L328 336.048L321.56 329.608C320.75 328.797 319.418 328.797 318.608 329.608C317.797 330.418 317.797 331.75 318.608 332.56L325.048 339L318.608 345.44C317.797 346.25 317.797 347.582 318.608 348.392C319.418 349.203 320.75 349.203 321.56 348.392L328 341.952L334.44 348.392C335.25 349.203 336.582 349.203 337.392 348.392C338.203 347.582 338.203 346.25 337.392 345.44Z" fill="#000CFF"/>
<path d="M1681.39 300.44L1674.95 294L1681.39 287.56C1682.2 286.75 1682.2 285.418 1681.39 284.608C1680.58 283.797 1679.25 283.797 1678.44 284.608L1672 291.048L1665.56 284.608C1664.75 283.797 1663.42 283.797 1662.61 284.608C1661.8 285.418 1661.8 286.75 1662.61 287.56L1669.05 294L1662.61 300.44C1661.8 301.25 1661.8 302.582 1662.61 303.392C1663.42 304.203 1664.75 304.203 1665.56 303.392L1672 296.952L1678.44 303.392C1679.25 304.203 1680.58 304.203 1681.39 303.392C1682.2 302.582 1682.2 301.25 1681.39 300.44Z" fill="#000CFF"/>
<path d="M1701.39 280.44L1694.95 274L1701.39 267.56C1702.2 266.75 1702.2 265.418 1701.39 264.608C1700.58 263.797 1699.25 263.797 1698.44 264.608L1692 271.048L1685.56 264.608C1684.75 263.797 1683.42 263.797 1682.61 264.608C1681.8 265.418 1681.8 266.75 1682.61 267.56L1689.05 274L1682.61 280.44C1681.8 281.25 1681.8 282.582 1682.61 283.392C1683.42 284.203 1684.75 284.203 1685.56 283.392L1692 276.952L1698.44 283.392C1699.25 284.203 1700.58 284.203 1701.39 283.392C1702.2 282.582 1702.2 281.25 1701.39 280.44Z" fill="#000CFF"/>
<path d="M1721.39 260.44L1714.95 254L1721.39 247.56C1722.2 246.75 1722.2 245.418 1721.39 244.608C1720.58 243.797 1719.25 243.797 1718.44 244.608L1712 251.048L1705.56 244.608C1704.75 243.797 1703.42 243.797 1702.61 244.608C1701.8 245.418 1701.8 246.75 1702.61 247.56L1709.05 254L1702.61 260.44C1701.8 261.25 1701.8 262.582 1702.61 263.392C1703.42 264.203 1704.75 264.203 1705.56 263.392L1712 256.952L1718.44 263.392C1719.25 264.203 1720.58 264.203 1721.39 263.392C1722.2 262.582 1722.2 261.25 1721.39 260.44Z" fill="#000CFF"/>
<path d="M1741.39 240.44L1734.95 234L1741.39 227.56C1742.2 226.75 1742.2 225.418 1741.39 224.608C1740.58 223.797 1739.25 223.797 1738.44 224.608L1732 231.048L1725.56 224.608C1724.75 223.797 1723.42 223.797 1722.61 224.608C1721.8 225.418 1721.8 226.75 1722.61 227.56L1729.05 234L1722.61 240.44C1721.8 241.25 1721.8 242.582 1722.61 243.392C1723.42 244.203 1724.75 244.203 1725.56 243.392L1732 236.952L1738.44 243.392C1739.25 244.203 1740.58 244.203 1741.39 243.392C1742.2 242.582 1742.2 241.25 1741.39 240.44Z" fill="#000CFF"/>
<path d="M1761.39 220.44L1754.95 214L1761.39 207.56C1762.2 206.75 1762.2 205.418 1761.39 204.608C1760.58 203.797 1759.25 203.797 1758.44 204.608L1752 211.048L1745.56 204.608C1744.75 203.797 1743.42 203.797 1742.61 204.608C1741.8 205.418 1741.8 206.75 1742.61 207.56L1749.05 214L1742.61 220.44C1741.8 221.25 1741.8 222.582 1742.61 223.392C1743.42 224.203 1744.75 224.203 1745.56 223.392L1752 216.952L1758.44 223.392C1759.25 224.203 1760.58 224.203 1761.39 223.392C1762.2 222.582 1762.2 221.25 1761.39 220.44Z" fill="#000CFF"/>
<path d="M1744.39 899.44L1737.95 893L1744.39 886.56C1745.2 885.75 1745.2 884.418 1744.39 883.608C1743.58 882.797 1742.25 882.797 1741.44 883.608L1735 890.048L1728.56 883.608C1727.75 882.797 1726.42 882.797 1725.61 883.608C1724.8 884.418 1724.8 885.75 1725.61 886.56L1732.05 893L1725.61 899.44C1724.8 900.25 1724.8 901.582 1725.61 902.392C1726.42 903.203 1727.75 903.203 1728.56 902.392L1735 895.952L1741.44 902.392C1742.25 903.203 1743.58 903.203 1744.39 902.392C1745.2 901.582 1745.2 900.25 1744.39 899.44Z" fill="#000CFF"/>
<path d="M1826.39 781.44L1819.95 775L1826.39 768.56C1827.2 767.75 1827.2 766.418 1826.39 765.608C1825.58 764.797 1824.25 764.797 1823.44 765.608L1817 772.048L1810.56 765.608C1809.75 764.797 1808.42 764.797 1807.61 765.608C1806.8 766.418 1806.8 767.75 1807.61 768.56L1814.05 775L1807.61 781.44C1806.8 782.25 1806.8 783.582 1807.61 784.392C1808.42 785.203 1809.75 785.203 1810.56 784.392L1817 777.952L1823.44 784.392C1824.25 785.203 1825.58 785.203 1826.39 784.392C1827.2 783.582 1827.2 782.25 1826.39 781.44Z" fill="#000CFF"/>
<path d="M1761.39 1045.44L1754.95 1039L1761.39 1032.56C1762.2 1031.75 1762.2 1030.42 1761.39 1029.61C1760.58 1028.8 1759.25 1028.8 1758.44 1029.61L1752 1036.05L1745.56 1029.61C1744.75 1028.8 1743.42 1028.8 1742.61 1029.61C1741.8 1030.42 1741.8 1031.75 1742.61 1032.56L1749.05 1039L1742.61 1045.44C1741.8 1046.25 1741.8 1047.58 1742.61 1048.39C1743.42 1049.2 1744.75 1049.2 1745.56 1048.39L1752 1041.95L1758.44 1048.39C1759.25 1049.2 1760.58 1049.2 1761.39 1048.39C1762.2 1047.58 1762.2 1046.25 1761.39 1045.44Z" fill="#2534B4"/>
<path d="M1673.39 1058.44L1666.95 1052L1673.39 1045.56C1674.2 1044.75 1674.2 1043.42 1673.39 1042.61C1672.58 1041.8 1671.25 1041.8 1670.44 1042.61L1664 1049.05L1657.56 1042.61C1656.75 1041.8 1655.42 1041.8 1654.61 1042.61C1653.8 1043.42 1653.8 1044.75 1654.61 1045.56L1661.05 1052L1654.61 1058.44C1653.8 1059.25 1653.8 1060.58 1654.61 1061.39C1655.42 1062.2 1656.75 1062.2 1657.56 1061.39L1664 1054.95L1670.44 1061.39C1671.25 1062.2 1672.58 1062.2 1673.39 1061.39C1674.2 1060.58 1674.2 1059.25 1673.39 1058.44Z" fill="#000CFF"/>
</g>
<defs>
<filter id="filter0_f_2953_2063" x="-23" y="0" width="2004.93" height="1143.84" filterUnits="userSpaceOnUse" color-interpolation-filters="sRGB">
<feFlood flood-opacity="0" result="BackgroundImageFix"/>
<feBlend mode="normal" in="SourceGraphic" in2="BackgroundImageFix" result="shape"/>
<feGaussianBlur stdDeviation="2" result="effect1_foregroundBlur_2953_2063"/>
</filter>
<radialGradient id="paint0_radial_2953_2063" cx="0" cy="0" r="1" gradientUnits="userSpaceOnUse" gradientTransform="translate(1221.79 599.973) scale(351.506)">
<stop/>
<stop offset="1" stop-color="white"/>
</radialGradient>
<radialGradient id="paint1_radial_2953_2063" cx="0" cy="0" r="1" gradientUnits="userSpaceOnUse" gradientTransform="translate(1190.3 596.473) scale(223.77 223.77)">
<stop/>
<stop offset="1" stop-color="white"/>
</radialGradient>
</defs>
</svg>
