<svg width="30" height="20" viewBox="0 0 30 20" fill="none" xmlns="http://www.w3.org/2000/svg">
<path d="M20.332 8.66602C22.5454 8.66602 24.3187 6.87935 24.3187 4.66602C24.3187 2.45268 22.5454 0.666016 20.332 0.666016C18.1187 0.666016 16.332 2.45268 16.332 4.66602C16.332 6.87935 18.1187 8.66602 20.332 8.66602ZM9.66536 8.66602C11.8787 8.66602 13.652 6.87935 13.652 4.66602C13.652 2.45268 11.8787 0.666016 9.66536 0.666016C7.45203 0.666016 5.66536 2.45268 5.66536 4.66602C5.66536 6.87935 7.45203 8.66602 9.66536 8.66602ZM9.66536 11.3327C6.5587 11.3327 0.332031 12.8927 0.332031 15.9993V17.9993C0.332031 18.7327 0.932031 19.3327 1.66536 19.3327H17.6654C18.3987 19.3327 18.9987 18.7327 18.9987 17.9993V15.9993C18.9987 12.8927 12.772 11.3327 9.66536 11.3327ZM20.332 11.3327C19.9454 11.3327 19.5054 11.3593 19.0387 11.3993C19.0654 11.4127 19.0787 11.4393 19.092 11.4527C20.612 12.5593 21.6654 14.0393 21.6654 15.9993V17.9993C21.6654 18.466 21.572 18.9193 21.4254 19.3327H28.332C29.0654 19.3327 29.6654 18.7327 29.6654 17.9993V15.9993C29.6654 12.8927 23.4387 11.3327 20.332 11.3327Z" fill="white"/>
</svg>
