<svg width="1920" height="1080" viewBox="0 0 1920 1080" fill="none" xmlns="http://www.w3.org/2000/svg">
<g opacity="0.8">
<path d="M1630.33 553.888C1624.49 581.386 1591.01 595.779 1564.75 589.816C1538.48 583.853 1518.47 563.578 1500.21 543.871C1397.48 432.446 1308.46 307.64 1235.84 172.924C1259.39 173.897 1259.41 214.261 1238.82 227.406C1218.23 240.552 1192.49 234.268 1170.22 227.597C973.388 168.015 779.65 98.5738 579.711 49.0184C443.314 15.1436 302.391 -9.42819 160.437 3.11937C143.42 4.56489 121.701 11.423 120.448 28.9442C119.904 35.681 123.014 41.867 126.505 47.3906C143.825 74.6658 171.248 92.6595 193.872 115.218C216.495 137.777 235.248 169.661 227.521 202.329C220.762 231.147 194.94 252.22 168.216 264.143C141.493 276.065 112.669 281.499 85.9455 293.421C78.8011 296.555 71.6022 300.362 67.1307 306.965C57.6425 320.827 65.1579 339.492 74.6224 352.313C115.453 407.413 186.209 427.224 246.862 458.343C307.516 489.463 366.318 549.567 351.152 619.474C340.727 667.25 299.213 701.805 276.489 745.445C272.413 753.244 268.91 762.075 270.874 770.248C272.716 777.911 279.002 783.361 285.016 788.126C338.158 828.953 403.8 849.097 468.202 868.353C568.002 898.276 667.801 928.199 767.601 958.122C761.736 943.398 770.597 925.123 783.985 915.785C797.21 906.441 813.667 903.794 829.552 902.141C946.827 890.44 1065.57 921.516 1159.74 988.57C1168.43 994.778 1177.7 1005.9 1171.37 1015.14C1152.19 1015 1133.18 1014.68 1114 1014.54C1184.45 1050.21 1263.88 1068.29 1344.08 1066.64C1377.12 1065.91 1414.02 1060.08 1435.86 1033.47C1444.21 1023.45 1449.67 1010.8 1459.52 1002.52C1477.49 987.261 1503.65 990.519 1524.26 999.33C1561.07 1014.94 1589.85 1044.47 1622.25 1067.87C1654.66 1091.26 1695.37 1109.21 1734.9 1097.21C1776.28 1084.61 1804.53 1041.66 1812.95 998.379C1819.45 964.655 1817.07 929.108 1811.04 896.139C1807.04 874.554 1796.69 860.521 1786.01 842.423C1750.65 782.613 1719.48 719.568 1686.37 658.314C1667.87 623.23 1649.01 588.64 1630.33 553.888Z" stroke="#245EE7" stroke-width="1.49779" stroke-miterlimit="10"/>
<path d="M1640.18 552.79C1633.27 575.359 1597.82 585.634 1568.35 578.714C1542.57 572.765 1522.48 553.327 1504.64 534.473C1403.82 427.642 1318.53 307.152 1247.79 177.362C1270.16 178.802 1269.44 218.138 1248.9 230.612C1228.37 243.087 1202.97 236.475 1180.89 229.47C988.381 168.832 798.498 100.006 603.013 49.7404C469.73 15.6218 331.676 -10.2134 192.551 3.613C175.518 5.22684 154.232 12.7767 152.039 29.7636C151.167 36.4909 153.841 41.9881 156.201 47.3056C165.437 69.0752 177.236 85.5268 191.586 106.965C208.132 131.687 226.615 160.868 217.348 194.337C209.184 224.296 184.395 248.788 160.45 260.808C135.469 273.468 107.581 277.414 82.6135 289.906C76.2864 293.068 69.6731 297.741 65.1739 304.682C56.012 318.559 62.7382 336.865 71.5636 349.498C109.852 403.682 177.333 423.557 235.051 454.586C292.755 485.783 348.664 545.299 334.711 614.421C324.682 663.405 283.776 696.468 268.114 742.051C265.102 750.901 263.358 762.328 264.819 772.683C266.184 782.19 270.809 789.95 277.874 795.935C328.175 839.549 395.655 857.397 459.795 875.975C564.002 906.397 668.482 935.477 772.948 964.725C766.086 950.132 773.829 931.476 786.142 921.255C801.414 910.965 820.302 912.793 836.762 910.146C949.852 891.545 1065.56 929.961 1157.12 995.088C1165.8 1001.3 1175.27 1012.09 1169.77 1021.2C1153.7 1021.16 1137.44 1021.28 1121.36 1021.23C1191.1 1055.88 1269.59 1073.43 1348.7 1071.24C1380.29 1070.29 1415.76 1063.9 1436.9 1037.76C1447.29 1026.97 1455.3 1017.27 1467.27 1009.24C1487.4 995.735 1515.41 996.355 1536.81 1003.67C1573.85 1016.43 1601.9 1044.92 1633.3 1066.61C1665.02 1088.3 1704.34 1105.35 1742.42 1093.14C1782.49 1080.49 1809.54 1038.17 1817.73 995.709C1824.03 962.476 1821.77 927.431 1816.02 894.969C1812.19 873.384 1802.37 858.858 1792.01 840.767C1758.1 781.158 1727.5 719.129 1695.5 658.234C1677.15 623.314 1658.84 587.889 1640.18 552.79Z" stroke="#2B63E7" stroke-width="1.49779" stroke-miterlimit="10"/>
<path d="M1649.87 551.626C1641.73 569.089 1604.63 575.255 1571.94 567.546C1546.48 561.606 1526.49 543.011 1508.92 524.837C1410.13 422.948 1328.6 306.612 1259.74 181.753C1281.07 183.834 1279.31 221.961 1258.83 233.764C1238.34 245.567 1213.3 238.627 1191.39 231.457C1003.37 169.771 817.341 101.563 625.988 50.577C495.972 16.39 360.489 -11.0564 224.524 4.06098C207.461 6.01174 186.963 13.9278 183.652 30.5425C182.29 37.2546 183.668 42.5398 185.906 47.3475C182.977 65.327 188.776 74.8187 189.285 98.9988C205.574 120.846 217.978 152.192 207.319 186.635C197.764 217.567 174.01 245.479 152.668 257.76C129.443 270.99 102.492 273.447 79.1036 286.671C73.4304 289.856 67.7439 295.238 63.0398 302.68C54.0407 316.566 59.9773 334.511 68.3268 346.962C103.908 400.222 168.112 420.161 223.043 451.272C277.973 482.383 330.987 541.308 317.92 609.632C308.287 659.824 276.61 694.393 259.393 738.918C259.04 749.382 257.461 762.846 258.581 775.388C259.647 786.576 262.609 796.647 270.548 804.015C318.581 849.422 387.339 865.799 451.351 884.041C559.652 914.781 668.975 943.022 778.094 971.763C770.249 957.132 776.696 938.26 788.097 927.16C805.239 916.087 826.558 922.393 843.947 918.426C952.592 894.094 1065.7 938.516 1154.46 1001.88C1163.31 1008.09 1172.96 1018.73 1167.98 1027.51C1154.83 1027.74 1141.67 1028.13 1128.52 1028.36C1197.52 1062.15 1275.08 1079.17 1352.94 1076.42C1383.08 1075.09 1417.09 1068.48 1437.56 1042.65C1450.13 1031.25 1460.55 1024.18 1474.46 1016.54C1496.77 1004.46 1526.62 1002.78 1548.96 1008.61C1586.07 1018.5 1613.55 1046.14 1644.1 1066.11C1674.97 1086.26 1713.07 1102.26 1749.85 1089.83C1788.48 1076.96 1814.48 1035.44 1822.43 993.809C1828.53 961.068 1826.38 926.694 1820.93 894.572C1817.26 872.987 1807.79 858.132 1797.77 839.879C1765.3 780.642 1735.12 719.457 1704.39 658.928C1686.27 623.163 1668.49 587.24 1649.87 551.626Z" stroke="#3168E8" stroke-width="1.49779" stroke-miterlimit="10"/>
<path d="M1659.7 550.322C1650.49 562.85 1611.44 564.724 1575.52 556.228C1550.56 550.304 1530.5 532.382 1513.19 515.06C1416.64 417.97 1338.53 305.965 1271.73 186.067C1291.86 188.783 1289.37 225.705 1268.78 236.829C1248.18 247.953 1223.67 240.524 1201.94 233.19C1018.41 170.637 836.26 103.062 649.22 51.3735C522.336 16.9519 389.574 -11.7565 256.617 4.64689C239.54 6.76616 219.478 15.3736 215.389 31.456C213.699 38.1574 214.123 43.0724 215.583 47.347C202.683 60.7621 197.501 65.9921 186.962 90.8099C200.006 112.21 209.302 143.452 197.101 178.69C186.141 210.76 163.765 241.931 144.699 254.46C123.383 268.432 96.8947 269.215 75.5786 283.187C70.3825 286.558 65.6235 292.647 60.742 300.253C51.9063 314.145 57.2294 331.564 64.9384 343.825C97.9575 396.326 158.904 415.986 210.864 447.337C262.838 478.518 312.949 536.843 300.933 604.363C291.682 655.924 264.942 690.326 250.479 735.287C251.982 747.167 251.208 762.856 251.988 777.585C252.577 790.616 254.053 802.834 262.852 811.753C308.978 858.45 378.626 874.014 442.519 891.748C555.544 922.991 669.538 950.381 783.299 978.608C774.458 964.111 779.623 944.855 790.273 932.884C809.298 920.861 833.223 921.342 851.174 926.688C957.78 917.494 1065.69 947.041 1151.98 1008.63C1160.81 1015.02 1170.66 1025.16 1166.36 1033.8C1156.14 1034.29 1146.09 1034.79 1135.87 1035.29C1204.13 1068.04 1280.75 1084.69 1357.5 1081.4C1386.18 1079.85 1418.76 1072.85 1438.54 1047.34C1453.3 1035.34 1465.97 1030.87 1481.97 1023.81C1506.13 1013.15 1537.82 1008.99 1561.24 1013.68C1598.23 1021.03 1625.16 1047.3 1654.87 1065.55C1685.06 1083.99 1721.6 1098.93 1757.24 1086.46C1794.59 1073.21 1819.52 1032.66 1827.09 991.858C1832.97 959.614 1831.11 925.754 1825.95 894.147C1822.44 872.566 1813.49 857.389 1803.83 838.808C1772.63 779.948 1743.21 719.46 1713.59 659.471C1695.52 623.028 1678.12 586.439 1659.7 550.322Z" stroke="#386CE8" stroke-width="1.49779" stroke-miterlimit="10"/>
<path d="M1669.56 549.032C1659.26 556.621 1618.42 554.21 1579.11 545.092C1554.46 539.348 1534.52 522.107 1517.48 505.471C1422.86 413.016 1348.52 305.202 1283.61 190.277C1302.56 193.46 1299.17 229.335 1278.8 239.79C1258.42 250.245 1234.1 242.485 1212.55 234.989C1033.36 171.575 855.323 103.978 672.56 52.2702C549.008 17.2896 418.774 -12.1746 288.863 5.17762C271.609 7.45979 252.312 16.7688 247.105 32.4741C244.91 39.3269 244.57 43.5395 245.403 47.4544C222.368 56.2976 206.369 57.271 184.783 82.7231C194.566 103.841 200.778 134.638 187.187 170.84C174.836 203.874 153.825 238.47 137.215 251.082C117.973 265.8 91.9489 264.909 72.543 279.622C68.0018 283.015 64.0069 289.806 59.0847 297.917C50.5765 311.82 55.1081 328.872 62.1757 340.942C92.4788 392.502 150.136 412.217 199.148 443.464C248.161 474.711 295.528 532.431 284.411 598.964C275.556 651.718 253.74 686.118 242.033 731.509C245.391 744.804 245.585 762.721 245.861 779.628C245.973 794.502 245.799 808.858 255.635 819.164C300.204 866.819 370.395 881.724 433.998 898.939C551.576 930.674 670.243 957.039 788.474 984.741C778.651 970.211 782.684 950.748 792.256 937.896C813.149 925.093 839.623 926.506 858.215 934.07C961.299 925.769 1065.47 954.848 1149.13 1014.32C1158.13 1020.71 1168 1030.68 1164.37 1039C1157.25 1039.77 1149.97 1040.54 1142.85 1041.31C1210.37 1073.02 1285.87 1089.29 1361.67 1085.46C1388.91 1083.52 1420.02 1076.31 1439.14 1050.94C1456.07 1038.34 1470.83 1036.48 1489.09 1029.84C1515.13 1020.42 1550.79 1007.61 1573.31 1017.34C1606.92 1032.01 1636.71 1047.22 1665.58 1063.75C1695.07 1080.65 1730.22 1094.52 1764.58 1081.67C1800.62 1068.21 1824.35 1028.47 1831.69 988.332C1837.36 956.759 1835.63 923.243 1830.76 892.155C1827.43 870.412 1818.99 854.916 1809.5 836.342C1779.75 777.874 1750.76 718.248 1722.42 658.645C1704.81 622.558 1687.95 585.483 1669.56 549.032Z" stroke="#3F71E8" stroke-width="1.49779" stroke-miterlimit="10"/>
<path d="M1679.36 547.592C1667.99 550.244 1625.19 543.711 1582.84 533.645C1558.68 527.919 1538.67 511.521 1522.05 495.746C1429.52 407.931 1358.77 304.472 1295.78 194.351C1313.53 198.168 1309.42 232.833 1288.93 242.608C1268.45 252.383 1244.48 244.298 1223.29 236.476C1048.6 172.209 874.478 105.088 695.882 52.6834C575.472 17.4755 447.957 -13.0757 321.079 5.39378C303.813 7.84443 284.788 17.8382 278.967 33.0146C276.282 39.8501 275.151 43.6975 275.192 47.2472C242.187 51.5249 215.059 48.0624 182.576 74.323C189.277 94.9965 192.051 125.673 177.083 162.671C163.328 196.837 141.144 231.729 129.363 247.547C109.726 259.04 88.7911 264.238 68.9762 275.894C65.6764 280.174 61.8452 286.97 56.7322 295.413C48.3879 309.32 52.2918 326.012 58.7179 337.89C86.4688 388.514 140.837 408.284 186.887 439.596C232.938 470.909 277.561 528.023 267.344 593.569C258.871 647.685 242.007 681.745 233.041 727.734C238.267 742.274 239.417 762.589 239.189 781.674C239.001 798.225 237.176 814.721 247.871 826.576C291.061 875.025 361.604 889.604 425.082 906.306C547.06 938.357 670.373 964.034 793.413 991.052C782.759 976.664 785.346 956.815 794.004 943.088C816.778 929.336 845.789 931.849 865.185 941.636C964.76 934.06 1065.35 962.677 1146.36 1020.36C1155.37 1026.75 1165.58 1036.39 1162.46 1044.57C1158.27 1045.61 1154.09 1046.64 1149.91 1047.52C1216.7 1078.19 1291.23 1094.08 1365.77 1089.71C1391.55 1087.55 1421.37 1079.95 1439.81 1054.9C1458.93 1041.7 1475.95 1042.28 1496.46 1036.22C1524.36 1028.05 1561.81 1011.42 1585.45 1021.53C1618.46 1035.5 1648.18 1047.5 1676.2 1062.31C1704.84 1077.48 1738.75 1090.47 1771.81 1077.41C1806.39 1063.72 1829.23 1024.8 1836.18 985.497C1841.64 954.426 1840.04 921.424 1835.45 890.854C1832.12 869.113 1824.21 853.298 1815.05 834.568C1786.75 776.491 1758.36 717.566 1731.14 658.343C1714.04 622.107 1697.55 584.54 1679.36 547.592Z" stroke="#4576E9" stroke-width="1.49779" stroke-miterlimit="10"/>
<path d="M1689.24 546.096C1676.8 543.643 1632.2 532.995 1586.47 522.139C1562.64 516.425 1542.74 500.709 1526.39 485.789C1436.09 402.959 1368.8 303.514 1307.86 198.542C1324.41 202.825 1319.4 236.443 1298.97 245.543C1278.54 254.644 1254.93 246.234 1233.92 238.25C1063.73 173.3 893.543 106.322 719.253 53.5637C602 17.9613 477.206 -13.6753 353.363 5.91101C336.07 8.69858 317.497 19.2139 310.735 33.8498C307.545 40.8364 305.636 44.1501 305.064 47.1715C261.927 46.879 223.984 39.1616 180.443 66.2245C183.883 86.6156 183.575 116.846 167.216 154.806C152.07 189.936 130.638 227.723 121.913 244.319C103.749 255.862 84.302 260.941 65.9745 272.478C63.4795 276.954 60.4259 284.284 55.1087 293.225C46.9419 306.968 50.2044 323.467 55.989 335.153C81.0236 384.835 132.102 404.659 175.367 435.872C218.632 467.086 260.334 523.758 251.003 588.483C242.926 643.789 230.985 677.846 224.774 724.262C232.019 740.222 233.973 762.759 233.227 784.189C232.562 802.582 229.251 821.221 240.641 834.62C282.478 883.524 353.357 897.943 416.709 914.132C543.071 946.667 671.219 971.322 798.725 997.814C787.09 983.394 788.545 963.339 796.289 948.737C821.094 934.211 852.49 937.65 872.512 949.823C968.564 943.14 1065.43 971.118 1143.79 1027.02C1152.94 1033.58 1163.18 1042.88 1160.74 1050.74C1159.49 1052.05 1158.25 1053.19 1157.16 1054.5C1223.02 1084.29 1296.78 1099.66 1370.2 1094.73C1394.53 1092.19 1422.91 1084.2 1440.65 1059.64C1461.95 1045.84 1481.07 1048.86 1503.82 1043.55C1533.43 1036.62 1570.62 1031.31 1597.59 1026.48C1632.32 1033.42 1659.81 1048.55 1686.97 1061.81C1714.93 1075.27 1747.27 1087.35 1779.19 1074.09C1812.48 1060.19 1834.1 1022.07 1840.82 983.611C1846.08 953.043 1844.76 920.56 1840.46 890.51C1837.29 868.777 1829.9 852.643 1821.09 833.757C1794.07 776.068 1766.44 717.851 1740.33 659.178C1723.35 621.599 1707.22 583.541 1689.24 546.096Z" stroke="#4C7BE9" stroke-width="1.49779" stroke-miterlimit="10"/>
<path d="M1699.09 544.622C1685.58 537.233 1639.01 522.465 1590.08 510.656C1566.73 505.127 1546.78 490.086 1530.7 475.852C1442.49 397.661 1378.95 302.575 1319.75 202.57C1335.1 207.487 1329.38 239.727 1308.83 248.315C1288.44 256.91 1265.2 248.007 1244.38 239.693C1078.52 174.051 912.42 107.387 742.46 53.9374C628.649 18.4559 506.397 -14.1045 385.6 6.43017C368.131 9.38056 349.995 20.5859 342.619 34.6931C338.938 41.6625 336.252 44.4426 335.053 47.1045C281.947 42.2482 233.028 30.2708 178.441 57.9681C178.799 77.9145 175.218 108.031 157.305 146.949C140.755 183.211 119.937 223.55 114.253 241.094C97.4129 252.513 79.6168 257.479 62.7628 269.066C61.0589 273.907 58.6192 281.763 53.2748 291.041C45.2719 304.789 47.743 320.922 53.0636 332.254C75.56 380.831 123.172 400.873 163.64 432.157C204.107 463.442 242.902 519.503 234.471 583.241C226.939 639.914 219.772 673.794 216.316 720.639C225.415 738.012 228.337 762.777 227.087 786.385C225.944 806.618 221.161 827.233 233.41 842.18C274.222 891.553 345.276 905.807 408.161 921.641C539.086 954.497 671.879 978.464 803.867 1004.26C791.236 989.978 791.41 969.543 798.226 954.234C824.912 938.76 858.843 943.299 879.506 957.689C971.886 951.724 1065.32 979.414 1140.88 1033.35C1150.03 1039.92 1160.47 1048.89 1158.87 1056.44C1160.71 1058.02 1162.41 1059.43 1164.25 1061.01C1229.37 1089.76 1302.17 1104.75 1374.49 1099.28C1397.36 1096.52 1424.29 1088.15 1441.35 1063.9C1464.83 1049.5 1486.05 1054.95 1511.05 1050.23C1542.37 1044.38 1581.62 1037.95 1609.75 1030.97C1644.11 1036.37 1671.3 1049.12 1697.77 1060.67C1724.89 1072.41 1755.98 1083.61 1786.61 1070.13C1818.6 1056.02 1839.17 1018.71 1845.5 981.084C1850.55 951.017 1849.34 919.217 1845.34 889.516C1842.35 867.622 1835.46 851.337 1826.83 832.291C1801.25 775.161 1774.24 717.476 1749.23 659.352C1732.61 621.281 1717.03 582.569 1699.09 544.622Z" stroke="#537FE9" stroke-width="1.49779" stroke-miterlimit="10"/>
<path d="M1708.74 543.303C1694.15 530.98 1645.8 511.928 1593.64 499.504C1570.62 493.987 1550.76 479.795 1534.95 466.247C1448.99 392.869 1388.89 301.962 1331.75 206.933C1346.07 212.49 1339.3 243.51 1318.97 251.43C1298.63 259.35 1275.75 250.122 1255.1 241.645C1093.74 175.319 931.56 108.964 765.753 54.9856C654.947 18.9345 535.401 -14.5436 417.813 6.94466C400.331 10.0634 382.469 21.9531 374.48 35.5317C370.294 42.6522 366.831 44.8988 364.84 47.1956C301.618 37.6023 241.885 21.3714 176.242 49.8716C173.354 69.3678 166.677 99.2076 147.373 139.089C129.269 176.309 109.366 219.548 106.737 237.871C91.3839 249.171 75.0613 254.187 59.5307 265.65C58.4678 270.681 56.8054 279.07 51.2704 288.679C43.4313 302.431 45.2749 318.204 49.9541 329.344C69.7352 376.98 114.236 396.913 151.742 428.263C189.249 459.613 225.464 515.075 217.755 577.988C210.619 635.853 208.374 669.73 207.672 717.004C218.64 735.622 222.517 762.782 220.762 788.567C219.32 810.477 212.873 833.399 225.981 849.895C265.781 899.567 336.832 913.82 399.592 929.14C534.916 962.313 672.366 985.423 809.135 1010.88C795.523 996.558 794.415 975.743 800.304 959.728C828.857 943.474 865.337 948.944 886.64 965.55C975.497 960.479 1065.21 987.532 1138.28 1039.69C1147.58 1046.43 1158.21 1055.07 1157.13 1062.3C1161.92 1063.98 1166.69 1065.83 1171.31 1067.51C1235.7 1095.22 1307.55 1109.67 1378.59 1103.82C1400.01 1100.67 1425.48 1092.08 1441.86 1068.14C1467.52 1053.14 1491 1061.04 1518.07 1057.06C1551.28 1052.29 1592.43 1044.57 1621.56 1035.43C1655.53 1039.47 1682.44 1049.68 1708.05 1059.67C1734.3 1069.86 1764.17 1080 1793.5 1066.31C1824.03 1051.98 1843.55 1015.49 1849.64 978.7C1854.49 949.135 1853.57 917.853 1849.86 888.672C1847.03 866.784 1840.51 850.007 1832.37 830.978C1808.07 774.235 1781.81 717.425 1757.76 659.676C1741.87 620.788 1726.67 581.416 1708.74 543.303Z" stroke="#5984EA" stroke-width="1.49779" stroke-miterlimit="10"/>
<path d="M1718.6 541.858C1702.93 524.601 1652.63 501.261 1597.25 488.052C1574.73 482.552 1554.8 469.203 1539.42 456.516C1455.69 387.948 1399.18 301.393 1343.79 211.159C1356.92 217.182 1349.42 247.16 1328.98 254.401C1308.54 261.641 1286.18 251.925 1265.71 243.287C1108.68 176.268 950.432 110.053 789.104 55.5556C681.602 19.2822 564.596 -15.12 450.067 7.1479C432.395 10.5979 414.983 23.0092 406.203 36.2221C401.527 43.3255 397.286 45.0387 394.668 46.9762C321.315 32.8148 250.771 12.3307 173.92 41.4602C167.773 60.675 157.836 90.2329 137.156 130.91C117.648 169.262 98.5096 215.227 98.7853 234.155C84.9187 245.336 70.233 250.408 56.0255 261.747C55.7672 266.974 54.705 276.059 49.1428 286.004C41.4812 299.593 42.6972 315.005 46.7216 326.122C63.788 372.818 105 392.807 139.71 424.228C174.433 455.481 207.892 510.507 200.919 572.428C194.328 631.66 196.856 665.36 198.909 713.063C211.73 733.095 216.576 762.482 214.316 790.445C212.397 814.196 204.478 839.093 218.445 857.137C257.235 907.109 328.283 921.36 390.904 936.338C530.792 969.833 672.887 992.255 814.137 1017.01C799.531 1002.83 797.305 981.642 802.279 964.752C832.7 947.718 871.728 954.119 893.822 973.116C979.172 968.769 1065.14 995.354 1135.58 1045.56C1144.88 1052.3 1155.7 1060.61 1155.29 1067.69C1163.01 1069.64 1170.73 1071.59 1178.43 1073.72C1242.08 1100.38 1312.81 1114.45 1382.9 1108.07C1402.7 1104.69 1426.89 1095.72 1442.58 1072.1C1470.43 1056.5 1496.02 1066.66 1525.33 1063.44C1560.26 1059.57 1603.46 1050.91 1633.75 1039.61C1667.35 1042.11 1693.95 1049.95 1718.88 1058.23C1744.29 1066.7 1772.75 1075.95 1800.78 1062.04C1830.02 1047.5 1848.49 1011.82 1854.35 975.871C1858.99 946.808 1858.2 916.039 1854.77 887.375C1852.11 865.495 1846.11 848.399 1838.14 829.208C1815.13 772.85 1789.79 716.75 1766.69 659.544C1751.15 620.332 1736.32 580.469 1718.6 541.858Z" stroke="#6089EA" stroke-width="1.49779" stroke-miterlimit="10"/>
<path d="M1728.41 540.365C1711.68 518.005 1659.57 490.721 1600.99 476.559C1578.78 471.24 1558.98 458.403 1543.85 446.57C1462.37 382.813 1409.3 300.434 1355.96 215.344C1367.89 222.001 1359.49 250.765 1339.11 257.331C1318.72 263.897 1296.73 253.856 1276.43 245.056C1123.89 177.352 969.566 111.444 812.553 56.4235C708.192 19.9227 593.877 -15.2292 482.406 7.81807C464.721 11.4364 447.419 24.5264 438.189 37.2164C432.845 44.4655 427.827 45.6453 424.595 47.055C341.277 28.332 259.758 3.5901 171.851 33.5228C162.622 52.2933 149.427 81.5691 127.356 123.209C106.458 162.525 88.0701 211.385 91.2365 231.085C78.693 242.142 65.6577 247.102 52.7598 258.484C53.306 263.908 52.8574 273.52 47.0909 283.963C39.5931 297.557 40.1816 312.609 43.5649 323.535C58.0938 369.128 96.0046 389.34 127.767 420.658C159.53 451.976 190.41 506.404 184.16 567.501C177.964 627.925 185.414 661.622 190.207 709.923C204.883 731.368 210.696 762.982 208.096 793.126C205.877 818.554 196.308 845.59 211.134 865.182C248.912 915.454 319.958 929.704 382.29 944.163C526.577 977.974 673.33 999.54 819.374 1023.78C803.786 1009.57 800.265 988.168 804.326 970.403C836.791 952.427 878.191 959.921 900.925 981.135C982.754 977.681 1065.16 1003.64 1132.95 1052.06C1142.42 1058.8 1153.24 1066.94 1153.52 1073.71C1164.17 1075.93 1174.98 1078.16 1185.63 1080.38C1248.52 1106.17 1318.31 1119.7 1387.13 1112.77C1405.49 1109 1428.22 1099.81 1443.24 1076.34C1473.28 1059.97 1500.97 1072.57 1532.68 1070.11C1569.33 1067.31 1614.59 1057.54 1645.88 1043.91C1679.26 1045.05 1705.25 1050.33 1729.48 1057.07C1754.04 1063.82 1781.26 1072.18 1808.01 1057.89C1835.95 1043.14 1853.21 1008.26 1858.85 972.985C1863.29 944.424 1862.78 914.173 1859.48 886.022C1856.99 863.98 1851.33 846.728 1843.87 827.387C1822.13 771.583 1797.57 716.02 1775.58 659.194C1760.39 619.827 1746.09 579.478 1728.41 540.365Z" stroke="#668EEB" stroke-width="1.49779" stroke-miterlimit="10"/>
<path d="M1738.24 538.883C1720.43 511.59 1666.38 480.02 1604.58 465.074C1582.86 459.772 1563.15 447.784 1548.14 436.631C1469.07 377.522 1419.27 299.484 1367.82 219.363C1378.57 226.486 1369.44 254.209 1349.11 260.102C1328.78 265.994 1307.14 255.628 1287.04 246.498C1138.81 178.272 988.581 112.51 835.722 56.9614C734.666 20.2393 623.042 -15.6614 514.481 7.99089C496.769 11.946 479.59 25.5459 469.747 37.7074C463.912 44.9392 458.117 45.5858 454.245 46.8046C360.799 23.5157 268.306 -5.48289 169.523 25.09C157.035 43.5789 140.581 72.5724 117.134 115.007C94.8321 155.454 77.0449 207.033 83.429 227.517C72.3586 238.624 60.8101 243.465 49.3989 254.728C50.7359 260.516 50.9145 270.487 45.1073 281.435C37.7734 295.033 37.5708 309.72 40.4902 320.29C52.3044 364.942 86.9272 385.209 115.893 416.598C144.859 447.987 172.996 501.81 167.481 561.915C161.831 623.703 174.066 657.054 181.436 705.946C197.965 728.803 204.746 762.644 201.642 794.964C198.946 822.232 188.069 851.247 203.575 872.55C240.52 922.958 311.562 937.206 373.577 951.484C522.439 985.447 673.821 1006.49 824.345 1030.04C807.762 1015.96 803.123 994.189 806.107 975.544C840.438 956.788 884.222 965.207 907.747 988.811C986.054 986.249 1064.9 1011.57 1129.88 1058.21C1139.34 1064.95 1150.52 1072.76 1151.3 1079.38C1165.04 1081.87 1178.63 1084.36 1192.37 1086.86C1254.52 1111.61 1323.36 1124.77 1391.07 1117.29C1407.96 1113.31 1429.26 1103.56 1443.59 1080.58C1475.8 1063.61 1505.61 1078.47 1539.54 1076.93C1578.08 1075.04 1625.22 1064.32 1657.52 1048.36C1690.53 1047.97 1716.06 1050.87 1739.77 1055.9C1763.32 1060.93 1789.46 1068.41 1814.91 1053.91C1841.39 1038.94 1857.76 1004.87 1863.01 970.43C1867.24 942.37 1866.86 912.633 1864.01 885.007C1861.68 862.972 1856.54 845.401 1849.27 825.731C1828.81 770.312 1805.04 715.287 1784.14 659.178C1769.64 619.332 1755.71 578.493 1738.24 538.883Z" stroke="#6D93EB" stroke-width="1.49779" stroke-miterlimit="10"/>
<path d="M1748.15 537.589C1729.26 505.363 1673.4 469.68 1608.23 453.944C1586.82 448.822 1567.22 437.513 1552.47 427.214C1475.81 372.919 1429.44 299.055 1379.89 223.9C1389.44 231.656 1379.42 258.166 1359.14 263.385C1338.87 268.603 1317.42 257.907 1297.83 248.625C1154.08 179.879 1007.78 114.256 859.244 58.0129C761.326 21.0621 652.391 -15.5894 547.05 8.84786C529.162 12.9657 512.42 27.2556 501.963 38.8891C495.46 46.2667 489.052 46.3856 484.566 47.0768C381.154 19.2269 277.701 -14.1976 167.862 17.1791C152.129 35.2188 132.58 63.9366 107.743 107.335C84.0506 148.747 67.0275 203.052 76.2884 224.478C66.5408 235.46 56.6424 240.189 46.704 251.502C48.8454 257.486 49.624 268.152 43.6261 279.431C36.4694 292.866 35.6395 307.193 37.9043 317.741C47.0182 361.286 78.5177 381.613 104.524 413.069C130.53 444.524 156.089 497.75 151.31 556.864C146.206 620.02 163.213 653.195 173.336 702.516C191.733 726.619 199.469 762.855 195.86 797.352C192.85 826.466 180.337 857.451 196.702 880.302C232.815 930.848 303.678 945.258 365.569 959.024C518.831 993.305 674.872 1013.49 830.028 1036.53C812.628 1022.42 806.53 1000.43 808.764 980.913C844.976 961.208 891.296 970.727 915.624 996.552C990.425 994.716 1065.52 1019.74 1127.86 1064.43C1137.48 1071.34 1148.68 1078.82 1150.14 1085.12C1166.82 1087.88 1183.5 1090.65 1200.19 1093.24C1261.6 1116.96 1329.48 1129.74 1396.08 1121.72C1411.53 1117.35 1431.37 1107.39 1445.01 1084.71C1479.41 1067.14 1511.5 1084.28 1547.5 1083.49C1587.77 1082.5 1636.79 1070.83 1670.41 1052.72C1703.04 1050.97 1730.49 1044.3 1751.13 1054.8C1771.31 1064.95 1798.57 1064.7 1822.89 1049.99C1848.07 1034.81 1863.23 1001.55 1868.24 967.946C1872.28 940.387 1872.18 911.167 1869.45 884.053C1867.29 862.025 1862.5 844.129 1855.74 824.307C1836.54 769.441 1813.71 714.957 1793.76 659.39C1778.98 618.86 1765.43 577.528 1748.15 537.589Z" stroke="#7497EB" stroke-width="1.49779" stroke-miterlimit="10"/>
<path d="M1757.98 536.117C1737.85 498.954 1680.21 458.991 1611.98 442.477C1591.07 437.372 1571.4 426.906 1557.09 417.299C1482.84 367.649 1439.73 298.123 1392.09 227.935C1400.6 236.332 1389.69 261.628 1369.31 266.167C1348.92 270.706 1327.99 259.69 1308.59 250.078C1169.14 180.978 1026.95 115.331 882.572 58.5588C787.808 21.212 681.536 -15.8521 579.267 9.1957C561.352 13.6502 544.747 28.2817 533.827 39.5609C526.67 46.9158 519.566 47.5176 514.371 46.8337C396.268 34.3584 286.571 -23.2559 165.692 8.75575C146.878 26.3515 124.071 54.7874 97.6802 99.1437C72.4342 141.513 56.3252 198.716 68.6399 220.921C60.3787 231.784 51.9531 236.563 43.3375 247.752C46.1197 253.926 47.839 265.13 41.6503 276.74C34.6575 290.18 33.2003 304.146 34.824 314.502C41.401 356.945 69.436 377.491 92.4822 409.012C115.528 440.533 138.672 493.166 134.453 551.451C129.907 615.804 151.671 648.97 164.548 698.72C184.799 724.235 193.502 762.697 189.389 799.37C185.916 830.155 172.081 863.287 189.127 887.849C224.406 938.532 295.089 953.104 356.677 966.52C514.514 1000.95 675.186 1020.62 834.971 1043.13C816.576 1029.17 809.197 1006.79 810.518 986.404C848.596 965.92 897.463 976.369 922.432 1004.41C993.549 1003.46 1065.08 1027.85 1124.94 1070.76C1134.55 1077.68 1146.12 1084.83 1148.26 1090.81C1167.86 1093.85 1187.65 1096.72 1207.25 1099.75C1267.93 1122.42 1334.85 1134.84 1400.19 1126.26C1414.17 1121.67 1432.57 1111.33 1445.69 1088.98C1482.27 1070.8 1516.48 1094.09 1554.7 1090.16C1596.89 1085.86 1647.77 1077.47 1682.4 1057.03C1714.66 1053.74 1741.37 1044.02 1761.76 1053.5C1781.21 1062.6 1807.11 1060.79 1830.14 1045.87C1854.03 1030.47 1867.97 998.016 1872.75 965.25C1876.57 938.361 1876.59 909.654 1874.16 882.89C1872.18 860.7 1867.9 842.654 1861.31 822.671C1843.39 768.359 1821.33 714.412 1802.48 659.392C1788.24 618.377 1775.22 576.559 1757.98 536.117Z" stroke="#7A9CEC" stroke-width="1.49779" stroke-miterlimit="10"/>
<path d="M1767.81 534.643C1746.62 492.38 1687.17 448.474 1615.58 431.002C1594.97 426.077 1575.59 416.297 1561.38 407.369C1489.7 362.539 1449.7 297.176 1404.12 231.96C1411.44 240.822 1399.65 264.904 1379.31 268.938C1358.98 272.803 1338.41 261.463 1319.18 251.688C1184.05 182.065 1045.95 116.563 905.898 59.0985C814.259 21.6924 710.678 -16.1214 611.33 9.36295C593.401 13.9857 576.742 29.29 565.359 40.2151C557.711 47.5528 549.831 47.6215 543.995 46.7469C415.779 27.5113 295.261 -32.1568 163.329 0.658442C141.257 17.9731 115.192 46.1274 87.5885 91.284C60.939 134.785 45.5939 194.713 60.812 217.522C53.8736 228.261 47.0844 233.095 39.955 244.165C43.5415 250.535 45.8606 262.435 39.6449 274.38C32.8294 287.656 30.7449 301.263 31.7141 311.596C35.7545 352.936 60.3253 373.7 80.5891 405.124C100.853 436.548 121.405 488.752 117.758 546.04C113.757 611.759 140.292 644.748 155.923 694.926C178.026 721.853 187.684 762.709 183.08 801.39C179.13 834.014 163.986 869.127 181.727 895.23C216.173 946.05 286.689 960.615 348.126 973.856C510.361 1008.61 675.675 1027.59 840.104 1049.41C820.728 1035.41 812.218 1012.83 812.461 991.561C852.42 970.129 903.821 981.677 929.416 1012.1C997.027 1011.88 1064.98 1035.81 1122.03 1076.93C1131.81 1083.85 1143.38 1090.83 1146.21 1096.5C1168.92 1099.64 1191.46 1102.94 1214.17 1106.08C1274.11 1127.71 1339.92 1139.59 1404.3 1130.64C1416.84 1125.66 1433.94 1115.1 1446.22 1093.06C1484.98 1074.29 1521.32 1099.68 1561.74 1096.84C1605.81 1093.61 1658.58 1084.1 1694.21 1061.51C1726.08 1056.85 1750.05 1056.66 1772.04 1052.51C1791.89 1056.57 1815.3 1057.2 1837.04 1042.06C1859.46 1026.45 1872.52 994.813 1876.91 962.879C1880.52 936.492 1880.83 908.303 1878.7 881.888C1876.88 859.705 1872.95 841.334 1866.7 821.195C1850.07 767.268 1828.94 714.032 1811.03 659.554C1797.67 617.896 1784.85 575.581 1767.81 534.643Z" stroke="#81A1EC" stroke-width="1.49779" stroke-miterlimit="10"/>
<path d="M1777.4 533.415C1755.13 486.226 1693.73 438.04 1618.93 419.786C1598.82 414.879 1579.37 405.943 1565.43 397.701C1496.34 357.525 1459.44 296.499 1415.75 236.254C1421.88 245.748 1409.36 268.621 1389.08 271.981C1368.79 275.341 1348.57 263.677 1329.56 253.405C1198.88 183.608 1064.75 117.914 929.017 59.932C840.85 22.3132 739.786 -16.0831 643.677 10.0159C625.559 14.9695 609.201 30.6197 597.355 41.1899C589.053 48.5044 580.56 48.0458 573.934 46.8068C435.763 20.9892 304.132 -41.0739 161.153 -7.45644C135.839 9.40779 106.681 37.2841 77.5245 83.3947C49.486 127.855 34.8912 190.671 53.1615 214.255C47.6958 225.043 42.4066 229.59 36.7365 240.878C41.1133 247.612 44.0591 259.868 37.6392 272.312C30.8241 285.586 28.1124 298.832 28.6178 308.81C30.1349 348.876 51.3905 370.03 68.6937 401.518C85.9968 433.005 103.97 484.606 101.044 541.066C97.5879 608.145 120.508 645.226 147.274 691.556C165.995 723.767 181.854 762.971 176.745 803.824C172.482 838.29 155.88 875.205 174.301 903.016C208.074 953.975 278.408 968.699 339.552 981.421C506.354 1016.32 676.303 1034.61 845.189 1055.9C824.82 1042.04 815.029 1019.08 814.509 997.116C856.496 974.911 910.279 987.382 936.676 1020.02C1000.76 1020.69 1064.98 1044.15 1119.57 1083.16C1129.33 1090.25 1141.11 1096.73 1144.6 1102.25C1170.24 1105.66 1195.87 1109.23 1221.52 1112.64C1280.7 1133.4 1345.56 1144.73 1408.83 1135.24C1419.92 1130.04 1435.57 1119.1 1447.17 1097.37C1488.1 1078 1526.56 1105.48 1569.37 1103.57C1615.31 1101.42 1669.98 1090.79 1706.77 1065.88C1738.28 1059.69 1762.08 1057.47 1783.25 1051.27C1802.23 1053.94 1824.26 1053.34 1844.86 1038C1865.99 1022.18 1877.83 991.347 1881.99 960.254C1885.39 934.369 1885.99 906.701 1883.98 880.8C1882.33 858.627 1878.92 839.938 1873.02 819.646C1857.65 766.276 1837.47 713.586 1820.5 659.655C1806.85 617.487 1794.41 574.516 1777.4 533.415Z" stroke="#88A6EC" stroke-width="1.49779" stroke-miterlimit="10"/>
<path d="M1786.67 532.447C1763.34 480.36 1700.01 428.094 1622.19 409.079C1602.41 404.188 1583.22 396.111 1569.39 388.723C1503.08 353.059 1469.27 296.735 1427.51 241.322C1432.45 251.276 1419.04 273.091 1398.81 275.778C1378.59 278.464 1358.73 266.484 1339.9 256.057C1213.57 185.955 1083.6 120.285 952.083 61.6489C867.087 23.8305 768.736 -15.1173 675.578 11.4086C657.454 16.5285 641.223 32.6801 628.754 42.8855C619.801 50.1735 610.534 49.1833 603.448 47.5924C455.506 15.5622 307.045 -72.8401 159.023 -14.7734C128.702 -2.81325 98.0538 29.3829 67.5287 76.2623C37.9302 121.824 24.1128 187.156 45.4132 211.672C41.4341 222.335 37.782 226.935 33.2714 238.086C38.45 245.011 42.007 257.787 35.5477 270.727C28.8976 283.999 25.5727 296.709 25.4229 306.659C24.4015 345.6 42.1858 366.958 56.6997 398.329C71.2136 429.7 86.5864 480.841 84.2296 536.271C81.328 604.506 109.647 641.577 138.497 688.284C159.225 721.891 175.879 763.289 170.251 806.46C165.523 842.575 147.603 881.616 166.696 911.118C199.621 962.181 269.763 976.885 330.569 989.415C501.883 1024.43 676.248 1042.01 849.864 1062.76C828.523 1048.88 817.607 1025.73 816.013 1002.9C859.852 979.923 916.162 993.312 943.186 1028.15C1003.75 1029.53 1064.36 1052.52 1116.12 1089.71C1126.04 1096.8 1137.99 1103.11 1142 1108.31C1170.56 1111.98 1199.29 1115.65 1227.85 1119.33C1286.28 1139.03 1350.16 1149.98 1412.14 1139.94C1421.78 1134.36 1435.98 1123.03 1446.88 1101.81C1489.98 1081.85 1530.55 1111.4 1575.55 1110.57C1623.35 1109.5 1679.9 1097.76 1717.67 1070.7C1748.95 1063.16 1772.26 1058.72 1792.6 1050.64C1810.69 1051.93 1831.5 1050.1 1850.65 1034.39C1870.48 1018.36 1881.27 988.357 1885.04 957.946C1888.25 932.578 1888.97 905.437 1887.25 880.07C1885.78 857.748 1882.73 838.747 1877.15 818.479C1862.9 765.689 1843.84 713.41 1827.83 660.054C1815.55 617.286 1803.64 574.025 1786.67 532.447Z" stroke="#8EAAED" stroke-width="1.49779" stroke-miterlimit="10"/>
<path d="M1796.24 531.081C1771.83 474.073 1706.72 417.536 1625.52 397.735C1606.06 393.024 1588.2 382.801 1573.59 378.93C1517.21 336.186 1479.15 295.921 1439.29 245.472C1443.02 256.059 1428.73 276.661 1408.56 278.674C1388.39 280.688 1368.89 268.384 1350.25 257.628C1228.23 187.177 1102.37 121.488 975.168 62.3333C893.314 24.2902 797.792 -15.0611 707.72 11.9047C689.569 17.3608 673.476 33.8525 660.545 43.7036C650.938 50.9686 641.059 49.4517 633.169 47.665C475.401 9.57067 316.856 -79.6673 156.812 -22.8588C123.55 -10.9999 89.5107 20.5709 57.5973 68.4096C26.6105 114.93 13.5426 183.148 37.7297 208.433C35.0725 218.971 33.0694 223.458 30.0307 234.658C35.8492 241.772 40.1688 255.247 33.519 268.517C27.0464 281.624 23.0811 294.142 22.1272 303.895C18.5843 341.564 33.0693 363.144 44.611 394.747C56.1527 426.35 69.1251 476.727 67.3264 531.326C65.1325 600.926 98.7082 637.833 129.654 684.942C152.574 719.8 169.852 763.576 163.72 808.917C158.679 846.873 139.302 887.715 158.91 918.917C191.164 970.119 260.959 984.977 321.638 996.994C497.516 1032.16 676.501 1049.21 854.586 1069.27C832.253 1055.52 820.057 1032 817.55 1008.29C863.267 984.374 922.106 998.859 949.754 1036.07C1006.8 1038.35 1063.69 1060.7 1112.96 1096.11C1122.87 1103.37 1135.02 1109.18 1139.69 1114.23C1171.35 1118.17 1202.84 1122.11 1234.49 1126.06C1292.18 1144.72 1355.1 1155.3 1415.97 1144.71C1424.15 1138.92 1436.9 1127.21 1447.14 1106.13C1492.42 1085.57 1535.38 1113.85 1582.33 1117.31C1631.72 1120.84 1690.44 1104.45 1729.38 1075.07C1760.29 1066 1783.28 1059.53 1802.95 1049.4C1820.18 1049.31 1839.61 1046.26 1857.62 1030.34C1875.99 1014.09 1885.73 984.902 1889.28 955.33C1892.28 930.464 1893.28 903.843 1891.85 878.995C1890.54 856.682 1887.85 837.358 1882.78 816.941C1869.79 764.707 1851.68 712.974 1836.61 660.163C1824.7 616.907 1813 573.152 1796.24 531.081Z" stroke="#95AFED" stroke-width="1.49779" stroke-miterlimit="10"/>
<path d="M1805.82 529.726C1780.36 467.627 1713.28 407.149 1628.88 386.399C1609.91 381.706 1592.16 372.162 1577.65 369.138C1524.05 330.542 1488.88 295.103 1451.08 249.622C1453.78 260.847 1438.6 280.236 1418.32 281.571C1398.05 282.906 1378.9 270.278 1360.61 259.366C1242.7 188.726 1120.97 122.849 998.259 63.0099C919.543 24.7409 826.684 -15.0212 739.697 12.3851C721.357 18.1716 705.565 35.0095 692.171 44.5066C681.91 51.7487 671.405 49.8733 662.902 47.56C495.456 3.57535 326.348 -86.686 154.432 -30.9601C118.392 -19.1965 80.6344 11.7389 47.3325 60.538C14.9571 108.019 2.63856 179.123 29.8897 205.016C28.7178 215.434 28.1863 219.971 26.4693 231.046C33.0913 238.356 38.0237 252.356 31.3469 265.961C25.038 279.073 20.4596 291.063 18.8516 300.792C12.9376 337.364 23.797 359.157 32.558 390.662C41.3189 422.167 51.7011 472.113 50.6376 525.72C49.1515 596.686 87.998 633.263 121.026 680.943C146.138 717.052 164.042 763.206 157.405 810.719C152.05 850.516 131.365 893.334 151.49 926.237C183.074 977.579 252.701 992.429 313.063 1004.27C493.358 1039.41 676.965 1055.94 859.836 1075.48C836.672 1061.88 823.047 1037.8 819.777 1013.4C867.358 988.698 928.742 1004.11 957.192 1043.54C1010.71 1046.71 1063.87 1068.59 1110.51 1102.06C1120.58 1109.32 1132.75 1114.96 1138.1 1119.69C1172.68 1123.91 1207.26 1128.12 1241.85 1132.33C1298.79 1149.95 1360.59 1160.15 1420.52 1149.03C1427.25 1142.85 1438.55 1130.92 1448.1 1110.16C1495.56 1089 1540.63 1119.55 1589.81 1123.75C1641.09 1128.19 1697.37 1103.45 1741.62 1079.32C1770.1 1063.75 1794.82 1060.21 1813.66 1048.2C1830.02 1046.73 1848.23 1042.46 1864.95 1026.33C1882.03 1009.87 1890.71 981.656 1893.87 952.749C1896.66 928.384 1897.96 902.282 1896.65 877.946C1895.5 855.641 1893.32 835.999 1888.45 815.254C1876.56 763.569 1859.57 712.217 1845.27 660.112C1833.88 616.541 1822.38 572.291 1805.82 529.726Z" stroke="#9CB4ED" stroke-width="1.49779" stroke-miterlimit="10"/>
<path d="M1815.39 528.524C1788.85 461.504 1719.99 396.757 1632.38 375.226C1613.73 370.713 1596.1 361.68 1581.85 359.509C1531.04 324.893 1498.92 294.452 1463 254.101C1464.51 265.79 1448.44 284.135 1428.38 284.803C1408.16 285.465 1389.37 272.514 1371.27 261.272C1257.65 190.45 1140.03 124.551 1021.48 64.0186C946.067 25.5294 855.872 -14.6428 771.82 13.0297C753.453 19.1523 737.634 36.3248 723.764 45.6362C712.85 52.8554 701.732 50.4536 692.604 47.782C515.142 -1.93397 335.664 -93.5482 152.041 -38.8992C112.896 -27.242 71.8984 3.24305 37.2083 53.002C3.26753 101.606 -8.12477 175.433 22.0127 202.094C22.1623 212.388 23.2658 216.98 23.0339 227.935C30.4456 235.609 36.0041 249.966 29.2867 264.074C23.1552 277.022 17.9366 288.82 15.7019 298.19C7.26718 333.492 14.8148 355.675 20.6181 387.245C26.4215 418.814 34.3907 468.168 33.8989 520.775C32.9705 592.934 77.0868 629.179 112.347 677.604C139.65 714.964 158.178 763.496 151.201 813.184C145.382 854.648 123.391 899.441 144.195 934.05C175.108 985.533 244.39 1000.54 304.462 1011.86C489.323 1047.15 677.549 1063.16 864.877 1082.18C840.734 1068.54 825.979 1044.25 821.633 1018.97C871.092 993.33 935.005 1009.84 964.093 1051.48C1013.95 1055.36 1063.69 1076.79 1107.52 1108.47C1117.59 1115.73 1130.11 1121.04 1136.13 1125.63C1173.64 1130.11 1211.16 1134.42 1248.84 1138.91C1305.02 1155.66 1365.89 1165.32 1424.54 1153.65C1429.82 1147.25 1439.67 1134.94 1448.54 1114.49C1498.02 1092.56 1545.53 1125.38 1596.91 1130.67C1650.09 1136.02 1708.21 1110.67 1753.5 1083.87C1781.57 1067.28 1805.99 1061.37 1824.19 1047.14C1839.67 1044.29 1856.67 1038.8 1872.09 1022.46C1887.87 1005.79 1895.34 978.381 1898.27 950.313C1900.86 926.45 1902.28 900.861 1901.25 877.044C1900.29 854.578 1898.45 834.781 1894.08 813.886C1883.3 762.751 1867.42 711.948 1854.05 660.387C1842.88 616.154 1831.91 571.422 1815.39 528.524Z" stroke="#A2B9EE" stroke-width="1.49779" stroke-miterlimit="10"/>
<path d="M1824.98 527.15C1797.37 455.21 1726.55 386.356 1635.74 364.044C1617.57 359.548 1600.05 351.195 1585.89 350.039C1537.71 319.395 1508.63 293.952 1474.61 258.561C1474.92 270.883 1458.12 288.021 1437.96 288.01C1417.8 288 1399.35 274.893 1381.43 263.322C1272.09 192.484 1158.61 126.228 1044.38 65.0069C972.124 26.1235 884.755 -14.4537 803.636 13.4851C785.257 19.7755 769.562 37.4566 755.229 46.4141C743.676 53.4423 731.932 50.6822 722 47.8151C535.013 -7.61452 345.003 -100.587 149.837 -47.0089C107.752 -35.4525 63.2004 -5.59683 27.1221 45.122C-8.20684 94.6858 -18.8501 171.398 14.3368 198.835C15.9577 209.177 18.5597 213.482 19.7991 224.487C28.014 232.355 34.1715 247.405 27.2636 261.843C21.1323 274.79 15.6278 286.071 12.5756 295.412C1.9476 329.456 5.69333 352.013 8.71664 383.485C11.7263 415.125 17.2694 464.054 17.1857 515.658C17.1283 589.188 66.1869 625.091 103.692 674.093C133.2 712.536 152.34 763.613 144.858 815.472C138.562 858.77 115.44 905.375 136.761 941.685C167.018 993.139 235.954 1008.3 295.872 1019.44C485.312 1054.72 677.982 1070.37 869.944 1088.7C844.808 1075.19 828.773 1050.53 823.516 1024.38C875.002 997.964 941.295 1015.39 971.008 1059.41C1017.34 1064.19 1063.36 1084.98 1104.72 1114.72C1114.94 1122.15 1127.49 1127.13 1134.21 1131.23C1174.81 1135.99 1215.26 1140.56 1255.85 1145.32C1311.3 1161.03 1371.21 1170.32 1428.77 1157.94C1432.6 1151.15 1440.99 1138.62 1449.18 1118.49C1500.84 1095.96 1550.46 1131.04 1604.07 1137.08C1658.98 1143.33 1719.1 1117.54 1765.59 1088.09C1793.41 1070.48 1817.37 1062.02 1834.74 1045.91C1849.35 1041.69 1864.96 1035.14 1879.27 1018.42C1893.59 1001.53 1900 974.937 1902.87 947.713C1905.25 924.351 1906.95 899.28 1906.22 875.982C1905.42 853.524 1903.93 833.404 1899.9 812.354C1890.24 761.599 1875.46 711.345 1863.03 660.496C1852.06 615.768 1841.3 570.542 1824.98 527.15Z" stroke="#A9BDEE" stroke-width="1.49779" stroke-miterlimit="10"/>
<path d="M1834.42 525.792C1805.74 448.933 1733.14 375.81 1638.95 352.713C1621.11 348.397 1603.87 340.561 1589.96 340.257C1544.57 313.758 1518.38 293.138 1486.42 262.711C1485.55 275.498 1467.85 291.591 1447.74 290.908C1427.63 290.226 1409.54 276.795 1391.82 264.895C1286.6 193.868 1177.4 127.429 1067.49 65.6865C998.341 26.9135 913.784 -13.9003 835.613 14.1364C817.044 20.7571 801.649 38.784 786.691 47.3822C774.484 54.3876 762.128 51.1012 751.57 47.8759C554.883 -13.1031 354.191 -107.608 147.485 -55.0993C102.46 -43.6435 54.5186 -14.4115 17.0523 37.267C-19.6783 87.9588 -29.7089 167.213 6.51352 195.593C9.45559 205.811 13.6922 210.171 16.2528 221.05C25.1074 229.108 31.8773 244.684 25.0922 259.63C19.1382 272.413 12.9936 283.503 9.3013 292.652C-3.69686 325.6 -3.39831 348.207 -3.50892 379.906C-3.44241 411.443 -0.325201 459.947 0.162643 510.553C0.826354 585.28 55.1536 620.852 94.7263 670.593C126.262 710.281 146.19 763.74 138.204 817.769C131.594 862.907 107.179 911.319 129.001 949.496C158.588 1001.09 227.357 1016.24 286.971 1027.04C480.827 1062.29 678.28 1077.42 874.861 1095.23C848.746 1081.69 831.582 1056.83 825.412 1029.81C878.775 1002.44 947.598 1020.97 978.112 1067.2C1020.94 1072.7 1063.38 1093.2 1101.94 1120.98C1112.16 1128.41 1124.9 1133.06 1132.28 1137.02C1175.82 1141.87 1219.35 1146.89 1262.72 1151.74C1317.43 1166.41 1376.39 1175.16 1432.67 1162.4C1435.04 1155.4 1441.99 1142.48 1449.66 1122.67C1503.5 1099.54 1555.4 1136.72 1611.07 1143.67C1667.86 1150.82 1729.98 1124.6 1777.35 1092.32C1804.76 1073.69 1828.44 1062.69 1845.16 1044.54C1858.89 1038.93 1873.29 1031.16 1886.3 1014.23C1899.33 997.134 1904.69 971.347 1907.16 944.955C1909.34 922.095 1911.33 897.542 1910.72 874.756C1910.08 852.306 1908.95 831.863 1905.42 810.664C1896.87 760.458 1883.36 710.758 1871.71 660.279C1861.27 615.236 1850.7 569.684 1834.42 525.792Z" stroke="#B0C2EE" stroke-width="1.49779" stroke-miterlimit="10"/>
<path d="M1843.96 524.406C1814.21 442.462 1739.65 365.405 1642.43 341.365C1625.08 337.067 1607.79 329.904 1594.14 330.452C1551.38 307.924 1528.39 292.306 1498.17 266.831C1496.09 280.25 1477.69 294.969 1457.62 293.782C1437.57 292.427 1419.67 278.668 1402.29 266.612C1301.18 195.566 1196.27 128.944 1090.52 66.5084C1024.69 27.3476 942.781 -13.7078 867.708 14.6002C849.113 21.5566 833.855 39.9234 818.434 48.1678C805.575 55.1503 792.607 51.3379 781.26 47.7491C574.711 -18.7822 363.179 -114.821 145.085 -63.2095C96.9575 -51.8599 45.6137 -23.0837 6.77353 29.3855C-31.5081 81.0307 -40.6267 163.173 -1.35596 192.327C3.07058 202.426 8.79161 206.666 12.823 217.594C22.4806 225.847 29.8628 241.947 22.8736 257.391C17.0833 270.178 10.326 280.74 5.97998 289.866C-9.22443 321.723 -12.7132 344.536 -15.6032 376.138C-18.4931 407.739 -17.6245 455.654 -16.7423 505.425C-15.3714 581.516 44.0733 616.582 85.8764 667.068C119.616 707.837 140.154 763.839 131.664 820.036C124.591 866.839 99.0326 917.23 121.37 957.107C150.287 1008.84 218.723 1023.98 278.02 1034.59C476.451 1069.82 678.508 1084.6 879.556 1101.71C852.449 1088.32 834.006 1063.07 826.924 1035.18C882.15 1007.04 953.515 1026.49 984.653 1075.1C1023.97 1081.49 1062.68 1101.35 1098.76 1127.36C1109.14 1134.8 1122.05 1139.28 1129.96 1142.92C1176.42 1148.04 1222.89 1153.16 1269.34 1158.45C1323.14 1172.08 1381.31 1180.46 1436.48 1167.15C1437.41 1159.77 1443.07 1146.47 1449.89 1127.14C1505.9 1103.41 1560.07 1142.85 1617.79 1150.71C1676.48 1158.78 1740.6 1132.12 1789.01 1097.01C1816.18 1077.36 1839.4 1063.81 1855.29 1043.78C1867.98 1036.79 1881.33 1027.8 1893.06 1010.5C1904.78 993.361 1908.95 968.21 1911.2 942.489C1913.18 920.13 1915.45 896.096 1915.13 873.828C1914.83 851.224 1913.88 830.62 1910.69 809.267C1903.24 759.611 1890.85 710.292 1880.13 660.525C1870.39 614.837 1860.21 568.629 1843.96 524.406Z" stroke="#B6C7EF" stroke-width="1.49779" stroke-miterlimit="10"/>
<path d="M1853.57 523.22C1822.59 436.353 1746.23 355.196 1645.82 330.209C1628.79 325.922 1611.79 319.275 1598.23 320.838C1558.26 302.285 1538.15 291.656 1509.98 271.143C1506.71 285.194 1487.42 298.701 1467.41 296.842C1447.24 294.978 1429.86 280.9 1412.84 268.352C1315.66 197.448 1214.88 130.467 1113.64 67.1796C1050.92 28.1286 971.834 -13.3321 899.693 15.2419C881.072 22.5341 865.964 41.073 850.067 49.132C836.568 55.9237 822.961 51.9214 810.988 47.9746C594.577 -24.1097 372.216 -121.854 142.733 -71.1376C91.5019 -59.8939 36.9326 -31.7352 -3.29545 21.6938C-42.9649 74.2989 -51.335 159.325 -9.16553 189.08C-3.25462 199.059 4.10058 203.355 9.45295 214.158C19.8999 222.774 27.908 239.231 20.8918 255.01C15.2788 267.633 8.04503 278.009 2.89546 286.939C-14.515 317.707 -21.7906 340.726 -27.4731 372.398C-33.1557 404.07 -34.862 451.388 -33.4083 500.162C-31.1531 577.456 33.2325 612.18 77.2664 663.41C113.21 705.262 134.359 763.808 125.365 822.175C117.978 870.817 91.1266 923.014 113.98 964.59C142.39 1016.47 210.319 1031.76 269.476 1042.03C472.486 1077.24 678.998 1091.5 884.829 1108.09C856.743 1094.66 837.008 1069.21 829.014 1040.44C886.104 1011.53 959.848 1031.9 991.786 1082.72C1027.6 1089.84 1062.57 1109.23 1096.01 1133.46C1106.38 1141.07 1119.5 1145.05 1128.06 1148.54C1177.45 1153.93 1227.01 1159.32 1276.4 1164.71C1329.45 1177.46 1386.51 1185.3 1440.74 1171.46C1440.21 1163.86 1444.43 1150.18 1450.58 1131C1508.77 1106.67 1565.06 1148.2 1625 1156.98C1685.57 1165.94 1751.69 1138.85 1800.98 1101.07C1827.89 1080.41 1850.67 1064.32 1865.9 1042.24C1877.72 1033.88 1889.86 1023.67 1900.3 1006.15C1910.72 988.802 1913.68 964.455 1915.69 939.571C1917.47 917.714 1920.02 894.366 1919.83 872.441C1919.69 849.845 1919.09 828.919 1916.41 807.416C1910.07 758.307 1898.94 709.542 1889 660.312C1879.61 614.472 1869.63 567.769 1853.57 523.22Z" stroke="#BDCCEF" stroke-width="1.49779" stroke-miterlimit="10"/>
<path d="M1863.13 521.837C1831.07 430.058 1752.94 344.64 1649.16 318.869C1632.61 314.768 1615.57 308.627 1602.25 311.21C1565.07 296.8 1547.83 291.158 1521.57 275.433C1517.28 289.954 1497.09 302.418 1476.98 299.881C1456.86 297.345 1439.84 282.944 1423 270.236C1330.09 199.32 1233.61 131.991 1136.69 68.1866C1077.1 28.9117 1000.82 -12.6153 931.639 15.8873C912.979 23.683 898.022 42.393 881.487 50.2608C867.512 56.8669 852.953 52.496 840.518 48.1971C614.581 -29.4221 381.251 -129.038 140.388 -79.2174C86.0424 -67.9118 28.0998 -40.5453 -13.5148 13.8406C-54.5846 67.5707 -56.3492 147.92 -16.977 185.835C-8.16562 194.394 -2.5003 201.329 5.91604 210.717C15.381 221.321 25.7717 236.676 18.5651 252.783C12.9524 265.404 5.25613 275.426 -0.519617 283.996C-20.1354 313.673 -31.0337 336.904 -39.6582 368.471C-48.2828 400.039 -52.237 446.768 -50.4029 494.873C-47.2777 573.533 22.059 607.745 68.3217 659.716C106.631 702.653 128.227 763.734 118.728 824.266C110.864 874.739 83.0467 928.75 106.238 972.185C133.977 1024.2 201.736 1039.48 260.587 1049.4C468.168 1084.59 679.278 1098.49 889.558 1114.56C860.48 1101.27 839.63 1075.44 830.712 1045.98C889.676 1016.12 965.947 1037.58 998.685 1090.61C1030.81 1098.61 1062.38 1117.55 1093.03 1139.83C1103.55 1147.44 1116.68 1151.25 1125.93 1154.43C1178.41 1160.09 1230.89 1165.75 1283.2 1171.4C1335.51 1183.12 1391.62 1190.58 1444.57 1176.2C1442.43 1168.2 1445.36 1154.31 1450.83 1135.45C1511.19 1110.52 1569.77 1154.15 1631.92 1163.84C1694.39 1173.54 1762.66 1146.19 1812.66 1105.57C1839.33 1083.89 1858.25 1062.79 1876.22 1041.31C1885.66 1030 1897.93 1020.13 1907.07 1002.41C1916.04 984.843 1918.11 961.313 1919.73 937.262C1921.12 916.069 1924.14 893.077 1924.07 871.666C1924.1 849.079 1923.86 827.83 1921.52 806.174C1916.28 757.616 1906.27 709.234 1897.26 660.717C1888.76 613.903 1878.98 566.877 1863.13 521.837Z" stroke="#C3D1F0" stroke-width="1.49779" stroke-miterlimit="10"/>
<path d="M1872.72 520.465C1839.6 423.771 1759.51 334.249 1652.68 307.704C1636.46 303.614 1619.7 298.158 1606.64 301.592C1572.08 291.15 1558.04 290.506 1533.68 279.735C1528.19 294.887 1507.12 306.14 1487.06 302.932C1467 299.724 1450.15 285.162 1433.69 271.962C1344.7 201.186 1252.52 133.504 1159.93 68.8423C1103.31 29.5031 1030 -12.2557 963.6 16.3392C944.913 24.4706 930.107 43.3526 913.096 51.0351C898.468 57.6186 883.296 52.7218 870.072 48.0596C634.412 -34.7685 390.118 -136.43 138.169 -87.157C80.7209 -75.9572 19.5398 -49.0396 -23.4487 6.13793C-66.0695 60.8222 -68.1486 145.03 -24.6659 182.744C-14.7111 191.34 -6.89428 198.01 2.66552 207.437C13.2739 218.078 23.9362 234.115 16.6889 250.725C11.2534 263.183 2.93099 272.845 -3.49826 281.392C-25.3331 310.149 -40.0037 333.418 -51.42 365.057C-62.8364 396.696 -69.365 442.827 -66.9593 489.936C-62.9501 569.799 11.3264 603.669 59.8194 656.385C100.332 700.403 122.539 764.027 112.536 826.728C104.372 878.873 75.2615 934.689 98.9544 979.991C126.024 1032.15 193.452 1047.41 251.987 1057.15C464.159 1092.16 679.712 1105.7 894.61 1121.25C864.717 1107.93 842.411 1081.89 832.581 1051.55C893.572 1020.92 972.221 1043.31 1005.58 1098.71C1034.21 1107.44 1062.05 1125.91 1090.22 1146.25C1100.75 1153.85 1114.23 1157.35 1124.15 1160.38C1179.55 1166.3 1234.95 1172.23 1290.37 1177.98C1341.94 1188.66 1397.09 1195.76 1448.94 1180.83C1445.34 1172.62 1446.83 1158.34 1451.61 1139.79C1514.16 1114.27 1575 1160.16 1639.2 1170.76C1703.57 1181.37 1774.15 1153.76 1824.87 1110.31C1851.29 1087.6 1870.05 1064.47 1886.91 1040.44C1895.6 1028.26 1906.53 1016.83 1914.39 998.723C1922.06 980.947 1922.92 958.222 1924.31 935.008C1925.5 914.316 1928.63 891.836 1929.01 870.948C1929.22 848.2 1929.32 826.796 1927.33 804.817C1923.03 756.801 1914.46 708.977 1906.22 660.997C1897.95 613.52 1888.36 566 1872.72 520.465Z" stroke="#CAD5F0" stroke-width="1.49779" stroke-miterlimit="10"/>
<path d="M1882.26 519.103C1848.08 417.325 1766.19 323.875 1656 296.376C1640.26 292.472 1623.46 287.52 1610.65 291.806C1578.9 285.336 1567.73 289.677 1545.26 283.859C1538.58 299.476 1516.78 309.692 1496.77 305.812C1476.77 301.931 1460.28 287.046 1443.99 273.685C1359.1 203.055 1271.21 135.019 1182.95 69.6676C1129.46 30.1016 1058.96 -11.8948 995.505 16.7978C976.792 25.2649 962.123 44.487 944.486 51.8108C929.218 58.2035 913.408 53.1171 899.558 48.0971C654.188 -40.1071 399.082 -143.641 135.747 -95.2618C75.1971 -84.1677 10.6417 -58.0405 -33.7479 -1.73524C-77.9196 53.9033 -80.1633 142.143 -32.7203 179.481C-21.6222 188.116 -11.6541 194.521 -1.11436 203.98C10.4875 214.486 21.5711 231.378 14.2831 248.491C9.01128 260.953 0.226178 270.262 -7.00628 278.612C-31.0464 306.281 -49.3253 329.595 -63.6966 361.299C-78.068 393.003 -86.8437 438.549 -84.0436 484.824C-79.164 566.058 -0.0844577 599.244 50.7885 652.879C93.5185 697.811 116.322 764.146 105.815 829.015C97.174 882.993 67.0974 940.626 91.1288 987.789C117.693 1040.09 184.626 1055.34 243.022 1064.74C459.609 1099.72 679.929 1112.91 899.46 1127.77C868.574 1114.59 845.153 1088.18 834.249 1056.96C897.116 1025.39 978.294 1048.87 1012.29 1106.48C1037.4 1116.1 1061.51 1134.1 1087.05 1152.5C1097.73 1160.28 1111.24 1163.43 1121.83 1166.15C1180.16 1172.34 1238.67 1178.37 1296.99 1184.56C1347.83 1194.2 1402.02 1200.93 1452.76 1185.45C1447.73 1176.86 1447.76 1162.36 1451.86 1144.13C1516.58 1118.01 1579.54 1165.99 1645.96 1177.51C1712.21 1189.02 1785.12 1160.99 1836.4 1114.69C1862.74 1090.98 1881.33 1065.82 1897.08 1039.39C1905.03 1026.17 1914.61 1013.18 1921.17 994.865C1927.53 977.047 1927.2 954.957 1928.36 932.58C1929.34 912.388 1932.76 890.425 1933.27 870.049C1933.8 847.314 1934.08 825.75 1932.61 803.453C1929.41 755.984 1922.12 708.546 1914.66 661.101C1907.24 613.153 1897.87 565.138 1882.26 519.103Z" stroke="#D1DAF0" stroke-width="1.49779" stroke-miterlimit="10"/>
<path d="M1891.73 517.914C1856.48 411.219 1772.63 313.665 1659.25 285.218C1643.83 281.325 1627.3 277.057 1614.58 282.356C1585.6 280.026 1577.32 289.183 1556.89 288.491C1549.02 304.74 1526.33 313.746 1506.38 309.194C1486.43 304.642 1470.12 289.596 1454.2 275.742C1373.24 205.25 1289.63 137.028 1205.87 70.6541C1155.68 30.8658 1088.16 -11.3637 1027.65 17.4271C1008.89 26.3979 994.389 45.6245 976.276 52.7631C960.369 58.9654 943.933 53.5211 929.294 48.1378C674.049 -45.4495 407.978 -151.032 133.405 -103.372C69.7524 -92.3833 1.79507 -66.7099 -43.8053 -9.60651C-89.3648 46.9927 -91.9228 139.092 -40.3558 176.062C-28.1279 184.903 -15.9813 190.707 -4.31178 200.372C8.43343 210.915 19.6117 228.653 12.2966 246.1C7.03849 258.393 -2.22293 267.517 -10.0952 275.677C-36.3542 302.426 -58.4047 325.779 -75.5674 357.555C-92.7302 389.331 -103.916 434.287 -100.708 479.562C-94.7807 562.005 -10.9247 594.845 42.179 649.225C87.113 695.24 110.514 764.287 99.6655 831.331C90.5617 886.975 59.5051 946.593 83.7256 995.445C109.784 1047.9 176.225 1063.13 234.468 1072.35C455.649 1107.14 680.413 1119.98 904.565 1134.32C872.7 1121.1 847.987 1094.48 836.334 1062.4C901.064 1030.05 984.785 1054.46 1019.59 1114.28C1041.18 1124.79 1061.73 1142.17 1084.63 1158.79C1095.31 1166.57 1109.17 1169.39 1120.28 1171.79C1181.71 1178.09 1242.97 1184.55 1304.4 1190.84C1354.48 1199.62 1407.57 1205.8 1457.21 1189.78C1450.71 1180.97 1449.31 1165.92 1452.72 1148.17C1519.61 1121.45 1584.86 1171.52 1653.32 1184.12C1721.3 1196.54 1796.68 1168.25 1848.68 1119.12C1874.94 1094.39 1893.38 1067.04 1907.85 1038.21C1915.08 1023.79 1923.29 1009.4 1928.57 990.877C1933.63 972.847 1932.25 951.566 1933.01 930.02C1933.79 910.328 1937.5 888.882 1938.13 869.016C1938.83 846.289 1939.45 824.401 1938.33 801.948C1936.07 755.021 1930.21 708.139 1923.53 661.23C1916.49 612.624 1907.31 564.281 1891.73 517.914Z" stroke="#D7DFF1" stroke-width="1.49779" stroke-miterlimit="10"/>
<path d="M1901.31 516.569C1864.98 404.959 1779.16 303.468 1662.76 273.91C1647.82 270.203 1631.27 266.271 1618.79 272.59C1592.44 274.225 1587.36 288.377 1568.66 292.63C1559.59 309.512 1536.18 317.313 1516.12 312.084C1496.07 306.855 1480.09 291.652 1464.53 277.475C1387.33 207.116 1308.18 138.544 1228.74 71.4789C1181.82 31.8043 1117.09 -10.4959 1059.39 18.0515C1040.61 27.3579 1026.24 46.9249 1007.67 53.7105C991.107 59.8903 974.058 53.9202 958.794 48.1791C693.837 -50.7849 416.803 -158.415 130.993 -111.475C64.2247 -100.423 -6.95732 -75.366 -53.9454 -17.3021C-101.056 40.2521 -103.602 136.222 -48.2512 172.98C-34.88 181.859 -20.7321 187.225 -7.76953 197.101C5.96917 207.509 17.5688 226.102 10.213 244.053C5.11843 256.351 -4.60563 265.121 -13.2674 272.917C-41.9221 298.909 -67.4035 322.144 -87.5072 353.819C-107.611 385.493 -121.057 430.032 -117.441 474.307C-110.629 557.954 -21.9837 590.279 33.5003 645.579C80.6379 692.676 104.65 764.267 93.2972 833.481C83.8799 890.964 51.7073 952.226 76.2666 1002.94C101.656 1055.53 167.931 1070.76 225.709 1079.62C451.482 1114.23 680.84 1126.89 909.626 1140.54C876.769 1127.46 850.791 1100.29 838.212 1067.51C904.82 1034.21 991.07 1059.71 1026.49 1121.91C1044.59 1133.14 1061.39 1150.23 1081.67 1164.9C1092.51 1172.68 1106.38 1175.34 1118.17 1177.43C1182.53 1183.99 1246.87 1190.72 1311.23 1197.28C1360.58 1205.02 1412.72 1210.66 1461.24 1194.27C1453.3 1185.07 1450.44 1169.81 1453.17 1152.38C1522.25 1124.89 1589.76 1177.39 1660.29 1190.74C1730.15 1204.06 1807.86 1175.34 1860.42 1123.37C1886.61 1097.46 1904.87 1068.25 1918.22 1037.02C1924.72 1021.57 1931.58 1005.62 1935.58 986.717C1939.35 968.476 1936.75 947.998 1937.3 927.12C1937.87 907.928 1941.87 886.999 1942.78 867.65C1943.82 844.767 1944.46 822.712 1944 800.115C1942.85 753.734 1938.27 707.236 1932.35 661.03C1925.82 612.275 1916.68 563.432 1901.31 516.569Z" stroke="#DEE4F1" stroke-width="1.49779" stroke-miterlimit="10"/>
<path d="M1910.91 515.141C1873.5 398.607 1785.9 292.843 1666.11 262.665C1651.5 258.968 1636.05 257.602 1622.84 262.884C1600.13 272.058 1597.07 287.626 1580.43 296.837C1570.33 314.189 1545.88 320.776 1526.02 315.048C1506.02 309.146 1490.39 293.787 1475.03 279.111C1401.74 209.052 1326.89 139.952 1251.95 72.0283C1207.98 32.2853 1146.38 -10.2458 1091.46 18.3956C1072.64 28.2063 1058.43 47.7788 1039.2 54.5423C1022 60.5319 1004.33 54.2035 988.26 48.2666C713.568 -55.9142 425.423 -165.943 128.5 -119.379C58.6272 -108.433 -15.9456 -83.9959 -64.3091 -25.136C-112.645 33.3879 -115.178 133.234 -56.1916 169.61C-41.5267 178.701 -25.377 183.629 -11.434 193.539C3.28515 203.98 15.3205 223.262 7.77398 241.543C2.84281 253.846 -7.50762 262.259 -16.8094 269.864C-47.5338 295.112 -76.7873 318.388 -99.846 350.131C-122.905 381.874 -138.598 425.831 -134.586 469.277C-126.727 554.139 -33.2875 585.952 24.2527 642.165C73.6098 690.179 98.2205 764.487 86.3638 835.874C76.4697 895.195 43.507 958.115 68.2294 1010.86C93.1153 1063.6 158.899 1078.81 216.528 1087.5C446.918 1121.76 680.715 1134.23 914.131 1147.36C880.294 1134.25 853.185 1106.88 839.531 1073.21C908.004 1039.13 996.801 1065.57 1032.86 1129.98C1047.45 1142.1 1060.53 1158.56 1078.33 1171.46C1089.15 1179.41 1103.23 1181.57 1115.69 1183.51C1182.98 1190.34 1250.42 1197.18 1317.69 1204.17C1366.31 1210.88 1417.49 1216.15 1464.91 1199.22C1455.52 1189.8 1451.22 1174.15 1453.42 1157.04C1524.69 1128.95 1594.32 1183.55 1667.23 1197.81C1739 1211.87 1819.17 1183.07 1872.13 1128.25C1898.23 1101.33 1916.53 1069.76 1928.42 1036.29C1934.37 1019.47 1939.7 1002.29 1942.4 983.173C1944.88 964.72 1941.07 945.043 1941.38 925C1941.75 906.307 1946.03 885.892 1947.07 867.053C1948.27 844.175 1949.28 821.628 1949.15 799.042C1948.94 753.198 1945.78 707.254 1940.48 661.574C1935.19 611.682 1926.25 562.34 1910.91 515.141Z" stroke="#E5E8F1" stroke-width="1.49779" stroke-miterlimit="10"/>
<path d="M1920.5 513.727C1882.04 392.096 1792.46 282.383 1669.46 251.252C1655.17 247.734 1639.57 246.026 1627.04 253.017C1606.96 264.302 1606.94 286.715 1592.19 300.877C1580.9 318.864 1555.72 324.247 1535.76 317.84C1515.81 311.266 1500.35 295.744 1485.35 280.742C1415.65 210.801 1345.4 141.516 1274.95 72.7299C1234.1 32.9218 1175.63 -9.84259 1123.32 18.8885C1104.62 29.2092 1090.4 48.9507 1070.71 55.3617C1052.87 61.1613 1034.55 54.6423 1017.87 48.1787C733.449 -61.3938 434.155 -173.493 126.14 -127.64C53.1597 -116.799 -24.6424 -92.9761 -74.5733 -32.987C-124.491 26.8341 -126.819 130.231 -64.2217 166.562C-48.4124 175.693 -30.2603 180.184 -15.0231 190.306C0.513572 200.776 12.9851 220.747 5.56092 239.539C0.643315 251.675 -10.184 259.903 -20.126 267.319C-53.2342 291.645 -86.247 314.794 -112.084 346.444C-137.921 378.095 -156.025 421.467 -151.618 464.085C-142.546 550.172 -44.6507 581.633 15.2881 638.603C66.853 687.706 92.0773 764.566 79.7165 838.131C69.5226 899.129 35.4151 964.036 60.4925 1018.48C84.8755 1071.38 150.171 1086.57 207.665 1094.92C442.693 1128.67 681.073 1141.29 918.962 1153.9C884.129 1140.93 855.739 1113.17 841.336 1078.64C911.854 1043.61 996.622 1075.3 1039.88 1137.94C1049.56 1151.92 1060.46 1166.95 1075.47 1177.91C1086.46 1185.87 1100.72 1187.87 1113.69 1189.49C1184.07 1196.59 1254.28 1203.69 1324.66 1210.79C1372.54 1216.46 1422.78 1221.36 1468.93 1203.88C1458.09 1194.08 1452.33 1178.21 1453.87 1161.24C1527.32 1132.55 1599.24 1189.25 1674.19 1204.6C1747.88 1219.4 1830.53 1190.35 1884.04 1132.67C1910.08 1104.57 1928.39 1070.81 1938.97 1035.27C1944.37 1017.25 1948.16 998.842 1949.57 979.341C1950.76 960.674 1945.74 941.798 1945.82 922.588C1945.83 904.388 1950.55 884.493 1951.71 866.163C1953.24 843.295 1954.44 820.416 1954.81 797.678C1955.54 752.368 1953.83 706.808 1949.29 661.826C1944.38 611.27 1935.64 561.428 1920.5 513.727Z" stroke="#EBEDF2" stroke-width="1.49779" stroke-miterlimit="10"/>
<path d="M1930.12 512.516C1890.57 385.954 1799.21 271.961 1672.99 240.045C1659.19 236.543 1643.13 234.482 1631.25 243.518C1613.1 257.228 1616.96 286.347 1604.12 305.294C1591.64 323.747 1565.56 328.088 1545.65 321.009C1525.74 313.93 1510.48 298.076 1495.84 282.58C1429.88 212.931 1363.92 143.281 1297.98 73.4635C1260.25 33.5902 1204.89 -9.2398 1155.22 19.245C1136.48 30.0704 1122.59 49.824 1102.09 56.0394C1083.61 61.649 1064.67 54.7713 1047.36 47.9489C753.193 -66.8488 442.926 -181.181 123.652 -136.046C47.4011 -125.315 -33.4812 -101.933 -84.7889 -41.1448C-136.097 19.6434 -138.248 126.928 -72.1892 163.042C-55.0857 172.386 -35.0807 176.266 -18.5629 186.769C-2.0451 197.272 10.849 218.102 3.39744 237.231C-1.35683 249.373 -12.6474 257.249 -23.3932 264.469C-58.8854 287.872 -95.3309 310.907 -124.138 342.795C-152.944 374.683 -173.431 417.134 -168.452 458.763C-158.33 546.07 -55.8015 577.016 6.52278 634.913C60.3093 684.937 86.1338 764.519 73.2689 840.261C62.5982 903.1 27.7 969.669 52.9416 1026.14C76.6585 1079.19 141.78 1094.54 198.812 1102.54C438.423 1136.45 681.292 1148.39 923.983 1160.49C888.332 1147.48 858.647 1119.51 843.168 1084.1C915.553 1048.29 1009.27 1076.75 1046.77 1145.77C1054.18 1159.51 1060.12 1175.04 1072.5 1184.06C1083.48 1192.18 1097.94 1193.68 1111.75 1195.16C1185.06 1202.54 1258.36 1209.91 1331.67 1217.28C1378.8 1222.08 1428.1 1226.45 1473.15 1208.42C1460.86 1198.4 1453.82 1182.15 1454.51 1165.49C1530.14 1136.2 1604.34 1195.17 1681.36 1211.26C1756.93 1227.14 1842.24 1197.67 1896 1136.97C1921.97 1107.68 1940.13 1071.72 1949.42 1033.95C1954.09 1014.72 1956.52 994.918 1956.65 975.204C1956.54 956.324 1950.47 938.253 1950.32 919.878C1950.12 902.175 1955.13 882.795 1956.58 864.979C1958.28 841.947 1959.66 818.905 1960.53 796.013C1962.21 751.071 1961.92 706.231 1958.17 661.61C1953.92 610.905 1945.07 560.55 1930.12 512.516Z" stroke="#F2F2F2" stroke-width="1.49779" stroke-miterlimit="10"/>
</g>
</svg>
