<svg width="32" height="32" viewBox="0 0 32 32" fill="none" xmlns="http://www.w3.org/2000/svg">
<path d="M21.332 14.666C23.5454 14.666 25.3187 12.8793 25.3187 10.666C25.3187 8.45268 23.5454 6.66602 21.332 6.66602C19.1187 6.66602 17.332 8.45268 17.332 10.666C17.332 12.8793 19.1187 14.666 21.332 14.666ZM10.6654 14.666C12.8787 14.666 14.652 12.8793 14.652 10.666C14.652 8.45268 12.8787 6.66602 10.6654 6.66602C8.45203 6.66602 6.66536 8.45268 6.66536 10.666C6.66536 12.8793 8.45203 14.666 10.6654 14.666ZM10.6654 17.3327C7.5587 17.3327 1.33203 18.8927 1.33203 21.9993V23.9993C1.33203 24.7327 1.93203 25.3327 2.66536 25.3327H18.6654C19.3987 25.3327 19.9987 24.7327 19.9987 23.9993V21.9993C19.9987 18.8927 13.772 17.3327 10.6654 17.3327ZM21.332 17.3327C20.9454 17.3327 20.5054 17.3593 20.0387 17.3993C20.0654 17.4127 20.0787 17.4393 20.092 17.4527C21.612 18.5593 22.6654 20.0393 22.6654 21.9993V23.9993C22.6654 24.466 22.572 24.9193 22.4254 25.3327H29.332C30.0654 25.3327 30.6654 24.7327 30.6654 23.9993V21.9993C30.6654 18.8927 24.4387 17.3327 21.332 17.3327Z" fill="white"/>
</svg>
