<svg width="24" height="20" viewBox="0 0 24 20" fill="none" xmlns="http://www.w3.org/2000/svg">
<path d="M2.11484 8.67947C8.27 5.99838 12.3734 4.23077 14.4252 3.37666C20.2901 0.938012 21.5072 0.514474 22.3022 0.500125C22.477 0.497321 22.8662 0.540532 23.1202 0.745869C23.3314 0.919045 23.3907 1.15325 23.4204 1.31768C23.4468 1.48195 23.4831 1.85634 23.4534 2.14859C23.1367 5.48676 21.7612 13.5874 21.0619 17.3264C20.7684 18.9084 20.1845 19.4388 19.6204 19.4906C18.3934 19.6034 17.4632 18.6805 16.2757 17.9023C14.4186 16.6841 13.3696 15.9261 11.5653 14.7377C9.48058 13.3641 10.833 12.6091 12.0205 11.3754C12.3306 11.0525 17.7336 6.13922 17.8359 5.69358C17.8491 5.63784 17.8623 5.43003 17.7369 5.32051C17.6149 5.21067 17.4335 5.24828 17.3015 5.27796C17.1135 5.32019 14.1481 7.28219 8.39535 11.1636C7.55421 11.7422 6.79224 12.0242 6.10613 12.0094C5.35405 11.9932 3.90267 11.5832 2.82404 11.2329C1.5046 10.8031 0.452351 10.5758 0.544711 9.84585C0.590891 9.46585 1.11537 9.07695 2.11484 8.67947Z" fill="white"/>
</svg>
