<svg width="22" height="16" viewBox="0 0 22 16" fill="none" xmlns="http://www.w3.org/2000/svg">
<g id="Group">
<path id="Vector" d="M21.6421 2.87507C21.4016 1.5461 20.5894 0.692998 19.3195 0.460739C18.7955 0.364537 18.2619 0.294447 17.7297 0.270396C15.4728 0.168354 13.2148 0.0882997 10.9571 0C10.9564 0.0233633 10.9558 0.0467267 10.9551 0.0700901C10.4359 0.0700901 9.91643 0.0625314 9.39762 0.0714644C7.2451 0.10754 5.09224 0.131247 2.95106 0.398551C1.61935 0.564499 0.69684 1.35645 0.419572 2.67304C0.264618 3.4083 0.180098 4.16211 0.118941 4.91214C-0.0119625 6.51631 -0.0442589 8.12563 0.0698092 9.73221C0.140586 10.7258 0.231291 11.7226 0.396552 12.7042C0.613351 13.9898 1.49944 14.8398 2.74697 15.025C3.48567 15.1346 4.23158 15.2281 4.97714 15.2525C7.26572 15.3267 9.55567 15.3954 11.8453 15.4067C14.1277 15.4184 16.4111 15.3641 18.6846 15.1254C19.2707 15.0635 19.8483 14.9701 20.3605 14.6419C21.2078 14.0994 21.5933 13.2841 21.6857 12.3266C21.8104 11.0309 21.9369 9.73221 21.9795 8.43245C22.041 6.57266 21.9743 4.71355 21.6421 2.87507ZM8.82453 11.022V4.4545C10.7307 5.55017 12.617 6.6345 14.5365 7.73808C12.6197 8.84028 10.7338 9.92427 8.82453 11.022Z" fill="#999999"/>
</g>
</svg>
